<?xml version="1.0" encoding="utf-8" standalone="no"?>
<!DOCTYPE svg PUBLIC "-//W3C//DTD SVG 1.1//EN"
  "http://www.w3.org/Graphics/SVG/1.1/DTD/svg11.dtd">
<svg xmlns:xlink="http://www.w3.org/1999/xlink" width="576pt" height="216pt" viewBox="0 0 576 216" xmlns="http://www.w3.org/2000/svg" version="1.1">
 <metadata>
  <rdf:RDF xmlns:dc="http://purl.org/dc/elements/1.1/" xmlns:cc="http://creativecommons.org/ns#" xmlns:rdf="http://www.w3.org/1999/02/22-rdf-syntax-ns#">
   <cc:Work>
    <dc:type rdf:resource="http://purl.org/dc/dcmitype/StillImage"/>
    <dc:date>2023-07-11T12:05:13.789109</dc:date>
    <dc:format>image/svg+xml</dc:format>
    <dc:creator>
     <cc:Agent>
      <dc:title>Matplotlib v3.7.1, https://matplotlib.org/</dc:title>
     </cc:Agent>
    </dc:creator>
   </cc:Work>
  </rdf:RDF>
 </metadata>
 <defs>
  <style type="text/css">*{stroke-linejoin: round; stroke-linecap: butt}</style>
 </defs>
 <g id="figure_1">
  <g id="patch_1">
   <path d="M 0 216 
L 576 216 
L 576 0 
L 0 0 
z
" style="fill: #ffffff"/>
  </g>
  <g id="axes_1">
   <g id="patch_2">
    <path d="M 30.58 174.04 
L 275.22 174.04 
L 275.22 14.76 
L 30.58 14.76 
z
" style="fill: #ffffff"/>
   </g>
   <g id="PolyCollection_1">
    <path d="M 41.7 77.271228 
L 41.7 109.774746 
L 43.94647 112.328064 
L 46.192929 114.828924 
L 48.439398 117.277355 
L 50.685857 119.673344 
L 52.932327 122.016921 
L 55.178786 124.308072 
L 57.425255 126.546831 
L 59.671714 128.733186 
L 61.918184 130.867171 
L 64.164643 132.948779 
L 66.411112 134.978042 
L 68.657577 136.954964 
L 70.904041 138.879566 
L 73.150505 140.751867 
L 75.396969 142.57189 
L 77.643434 144.339657 
L 79.889898 146.055195 
L 82.136362 147.718533 
L 84.382826 149.329703 
L 86.629291 150.888743 
L 88.875755 152.395692 
L 91.122219 153.850596 
L 93.368684 155.253507 
L 95.615153 156.604486 
L 97.861617 157.903592 
L 100.108082 159.150902 
L 102.354546 160.3465 
L 104.60101 161.490482 
L 106.847474 162.582957 
L 109.093939 163.62405 
L 111.340403 164.613902 
L 113.586867 165.552678 
L 115.833332 166.440564 
L 118.079796 167.277773 
L 120.32626 168.064552 
L 122.572724 168.801179 
L 124.819189 169.487973 
L 127.065653 170.125292 
L 129.312117 170.713538 
L 131.558581 171.253153 
L 133.805051 171.744614 
L 136.05151 172.188418 
L 138.29798 172.585069 
L 140.544439 172.93503 
L 142.790908 173.238693 
L 145.037367 173.496309 
L 147.283837 173.707932 
L 149.530306 173.873354 
L 151.776765 173.992063 
L 154.023235 174.06323 
L 156.269694 174.085729 
L 158.516163 174.058192 
L 160.762633 173.979094 
L 163.009092 173.846843 
L 165.255561 173.659859 
L 167.50202 173.416648 
L 169.74849 173.115835 
L 171.994949 172.756204 
L 174.241419 172.336692 
L 176.487883 171.8564 
L 178.734347 171.314574 
L 180.980811 170.710598 
L 183.227276 170.043984 
L 185.47374 169.314352 
L 187.720204 168.521429 
L 189.966668 167.665038 
L 192.213133 166.74509 
L 194.459597 165.761589 
L 196.706061 164.714624 
L 198.952526 163.604379 
L 201.19899 162.431136 
L 203.445454 161.195285 
L 205.691918 159.897333 
L 207.938383 158.537921 
L 210.184847 157.117835 
L 212.431316 155.638019 
L 214.677781 154.099596 
L 216.924245 152.503855 
L 219.170709 150.852251 
L 221.417174 149.146371 
L 223.663638 147.387887 
L 225.910102 145.578473 
L 228.156566 143.71971 
L 230.403031 141.812987 
L 232.649495 139.859411 
L 234.895959 137.859748 
L 237.142423 135.814415 
L 239.388888 133.723508 
L 241.635357 131.586851 
L 243.881816 129.404098 
L 246.128286 127.174749 
L 248.374745 124.898284 
L 250.621214 122.574128 
L 252.867673 120.201764 
L 255.114143 117.780669 
L 257.360602 115.31041 
L 259.607071 112.790554 
L 261.85353 110.220766 
L 264.1 107.600705 
L 264.1 100.30591 
L 264.1 100.30591 
L 261.85353 103.376284 
L 259.607071 106.376473 
L 257.360602 109.30619 
L 255.114143 112.165046 
L 252.867673 114.95266 
L 250.621214 117.668549 
L 248.374745 120.312238 
L 246.128286 122.883164 
L 243.881816 125.380797 
L 241.635357 127.804574 
L 239.388888 130.154036 
L 237.142423 132.428806 
L 234.895959 134.628719 
L 232.649495 136.753871 
L 230.403031 138.804677 
L 228.156566 140.781906 
L 225.910102 142.686664 
L 223.663638 144.520339 
L 221.417174 146.284512 
L 219.170709 147.98086 
L 216.924245 149.61105 
L 214.677781 151.176674 
L 212.431316 152.679184 
L 210.184847 154.119875 
L 207.938383 155.499859 
L 205.691918 156.820085 
L 203.445454 158.081341 
L 201.19899 159.284266 
L 198.952526 160.429367 
L 196.706061 161.517036 
L 194.459597 162.547553 
L 192.213133 163.521101 
L 189.966668 164.437773 
L 187.720204 165.29757 
L 185.47374 166.100404 
L 183.227276 166.846097 
L 180.980811 167.534377 
L 178.734347 168.164864 
L 176.487883 168.737069 
L 174.241419 169.250377 
L 171.994949 169.704036 
L 169.74849 170.09714 
L 167.50202 170.428635 
L 165.255561 170.697297 
L 163.009092 170.901757 
L 160.762633 171.040518 
L 158.516163 171.112001 
L 156.269694 171.114613 
L 154.023235 171.04683 
L 151.776765 170.907283 
L 149.530306 170.694848 
L 147.283837 170.408693 
L 145.037367 170.048307 
L 142.790908 169.613485 
L 140.544439 169.104276 
L 138.29798 168.520938 
L 136.05151 167.863853 
L 133.805051 167.133496 
L 131.558581 166.330358 
L 129.312117 165.454946 
L 127.065653 164.507733 
L 124.819189 163.489163 
L 122.572724 162.399636 
L 120.32626 161.239511 
L 118.079796 160.009105 
L 115.833332 158.7087 
L 113.586867 157.338539 
L 111.340403 155.898837 
L 109.093939 154.389781 
L 106.847474 152.811533 
L 104.60101 151.164237 
L 102.354546 149.448016 
L 100.108082 147.66298 
L 97.861617 145.809225 
L 95.615153 143.886834 
L 93.368684 141.895877 
L 91.122219 139.836428 
L 88.875755 137.708541 
L 86.629291 135.512268 
L 84.382826 133.247654 
L 82.136362 130.91474 
L 79.889898 128.513561 
L 77.643434 126.044152 
L 75.396969 123.50654 
L 73.150505 120.900752 
L 70.904041 118.226812 
L 68.657577 115.484741 
L 66.411112 112.674559 
L 64.164643 109.796275 
L 61.918184 106.849927 
L 59.671714 103.835502 
L 57.425255 100.75304 
L 55.178786 97.602525 
L 52.932327 94.383998 
L 50.685857 91.097438 
L 48.439398 87.742885 
L 46.192929 84.320317 
L 43.94647 80.829773 
L 41.7 77.271228 
z
" clip-path="url(#p3c2b14ff32)" style="fill: #1f77b4; fill-opacity: 0.25"/>
   </g>
   <g id="PolyCollection_2">
    <path d="M 41.7 -284.868581 
L 41.7 -239.717763 
L 43.94647 -229.156596 
L 46.192929 -218.732442 
L 48.439398 -208.445193 
L 50.685857 -198.294936 
L 52.932327 -188.281566 
L 55.178786 -178.405166 
L 57.425255 -168.66563 
L 59.671714 -159.063036 
L 61.918184 -149.597279 
L 64.164643 -140.268433 
L 66.411112 -131.076391 
L 68.657577 -122.021199 
L 70.904041 -113.102815 
L 73.150505 -104.321213 
L 75.396969 -95.676368 
L 77.643434 -87.168251 
L 79.889898 -78.796828 
L 82.136362 -70.562064 
L 84.382826 -62.463919 
L 86.629291 -54.502346 
L 88.875755 -46.677295 
L 91.122219 -38.988709 
L 93.368684 -31.436524 
L 95.615153 -24.020648 
L 97.861617 -16.741036 
L 100.108082 -9.597576 
L 102.354546 -2.590159 
L 104.60101 4.281334 
L 106.847474 11.017045 
L 109.093939 17.617134 
L 111.340403 24.081785 
L 113.586867 30.411211 
L 115.833332 36.605659 
L 118.079796 42.665412 
L 120.32626 48.590799 
L 122.572724 54.3822 
L 124.819189 60.040053 
L 127.065653 65.56486 
L 129.312117 70.957194 
L 131.558581 76.217699 
L 133.805051 81.347104 
L 136.05151 86.346147 
L 138.29798 91.215685 
L 140.544439 95.956474 
L 142.790908 100.569287 
L 145.037367 105.054648 
L 147.283837 109.412899 
L 149.530306 113.643936 
L 151.776765 117.747185 
L 154.023235 121.721609 
L 156.269694 125.565586 
L 158.516163 129.277149 
L 160.762633 132.853989 
L 163.009092 136.293665 
L 165.255561 139.593799 
L 167.50202 142.752076 
L 169.74849 145.766446 
L 171.994949 148.635043 
L 174.241419 151.356311 
L 176.487883 153.928895 
L 178.734347 156.351694 
L 180.980811 158.62381 
L 183.227276 160.744526 
L 185.47374 162.713295 
L 187.720204 164.529712 
L 189.966668 166.193509 
L 192.213133 167.704545 
L 194.459597 169.062798 
L 196.706061 170.268368 
L 198.952526 171.321479 
L 201.19899 172.222488 
L 203.445454 172.971899 
L 205.691918 173.570377 
L 207.938383 174.01877 
L 210.184847 174.318133 
L 212.431316 174.469755 
L 214.677781 174.475175 
L 216.924245 174.336202 
L 219.170709 174.054907 
L 221.417174 173.633595 
L 223.663638 173.074732 
L 225.910102 172.380838 
L 228.156566 171.554335 
L 230.403031 170.597375 
L 232.649495 169.511694 
L 234.895959 168.2985 
L 237.142423 166.958442 
L 239.388888 165.491653 
L 241.635357 163.89784 
L 243.881816 162.176427 
L 246.128286 160.326627 
L 248.374745 158.347607 
L 250.621214 156.238486 
L 252.867673 153.998461 
L 255.114143 151.626753 
L 257.360602 149.122704 
L 259.607071 146.485687 
L 261.85353 143.715202 
L 264.1 140.810764 
L 264.1 131.035157 
L 264.1 131.035157 
L 261.85353 134.56044 
L 259.607071 137.924248 
L 257.360602 141.126155 
L 255.114143 144.165606 
L 252.867673 147.042026 
L 250.621214 149.754708 
L 248.374745 152.302919 
L 246.128286 154.685812 
L 243.881816 156.902548 
L 241.635357 158.952255 
L 239.388888 160.834182 
L 237.142423 162.547726 
L 234.895959 164.092604 
L 232.649495 165.468949 
L 230.403031 166.67741 
L 228.156566 167.719194 
L 225.910102 168.596037 
L 223.663638 169.310093 
L 221.417174 169.863782 
L 219.170709 170.259624 
L 216.924245 170.500087 
L 214.677781 170.587473 
L 212.431316 170.523856 
L 210.184847 170.311041 
L 207.938383 169.950571 
L 205.691918 169.443734 
L 203.445454 168.791583 
L 201.19899 167.994969 
L 198.952526 167.054556 
L 196.706061 165.970846 
L 194.459597 164.744199 
L 192.213133 163.374837 
L 189.966668 161.86286 
L 187.720204 160.208248 
L 185.47374 158.410858 
L 183.227276 156.470422 
L 180.980811 154.386537 
L 178.734347 152.158653 
L 176.487883 149.786056 
L 174.241419 147.267846 
L 171.994949 144.602909 
L 169.74849 141.78993 
L 167.50202 138.8273 
L 165.255561 135.713208 
L 163.009092 132.445545 
L 160.762633 129.022059 
L 158.516163 125.440305 
L 156.269694 121.697877 
L 154.023235 117.792501 
L 151.776765 113.722136 
L 149.530306 109.485238 
L 147.283837 105.080691 
L 145.037367 100.507959 
L 142.790908 95.766983 
L 140.544439 90.858017 
L 138.29798 85.781675 
L 136.05151 80.538637 
L 133.805051 75.129756 
L 131.558581 69.55579 
L 129.312117 63.817551 
L 127.065653 57.915743 
L 124.819189 51.851012 
L 122.572724 45.623928 
L 120.32626 39.234996 
L 118.079796 32.684652 
L 115.833332 25.973277 
L 113.586867 19.101199 
L 111.340403 12.068702 
L 109.093939 4.876032 
L 106.847474 -2.476597 
L 104.60101 -9.989001 
L 102.354546 -17.66102 
L 100.108082 -25.492514 
L 97.861617 -33.483361 
L 95.615153 -41.633453 
L 93.368684 -49.942718 
L 91.122219 -58.411033 
L 88.875755 -67.038345 
L 86.629291 -75.824589 
L 84.382826 -84.769709 
L 82.136362 -93.873653 
L 79.889898 -103.136376 
L 77.643434 -112.557838 
L 75.396969 -122.138003 
L 73.150505 -131.876838 
L 70.904041 -141.774313 
L 68.657577 -151.830403 
L 66.411112 -162.045083 
L 64.164643 -172.418356 
L 61.918184 -182.95013 
L 59.671714 -193.640485 
L 57.425255 -204.489305 
L 55.178786 -215.496676 
L 52.932327 -226.662483 
L 50.685857 -237.986817 
L 48.439398 -249.46956 
L 46.192929 -261.110811 
L 43.94647 -272.910451 
L 41.7 -284.868581 
z
" clip-path="url(#p3c2b14ff32)" style="fill: #2ca02c; fill-opacity: 0.25"/>
   </g>
   <g id="matplotlib.axis_1">
    <g id="xtick_1">
     <g id="line2d_1">
      <defs>
       <path id="m7e3881c53d" d="M 0 0 
L 0 3.5 
" style="stroke: #000000; stroke-width: 0.8"/>
      </defs>
      <g>
       <use xlink:href="#m7e3881c53d" x="63.94" y="174.04" style="stroke: #000000; stroke-width: 0.8"/>
      </g>
     </g>
     <g id="text_1">
      <!-- −4 -->
      <g transform="translate(56.568906 188.638438) scale(0.1 -0.1)">
       <defs>
        <path id="DejaVuSans-2212" d="M 678 2272 
L 4684 2272 
L 4684 1741 
L 678 1741 
L 678 2272 
z
" transform="scale(0.015625)"/>
        <path id="DejaVuSans-34" d="M 2419 4116 
L 825 1625 
L 2419 1625 
L 2419 4116 
z
M 2253 4666 
L 3047 4666 
L 3047 1625 
L 3713 1625 
L 3713 1100 
L 3047 1100 
L 3047 0 
L 2419 0 
L 2419 1100 
L 313 1100 
L 313 1709 
L 2253 4666 
z
" transform="scale(0.015625)"/>
       </defs>
       <use xlink:href="#DejaVuSans-2212"/>
       <use xlink:href="#DejaVuSans-34" x="83.789062"/>
      </g>
     </g>
    </g>
    <g id="xtick_2">
     <g id="line2d_2">
      <g>
       <use xlink:href="#m7e3881c53d" x="108.42" y="174.04" style="stroke: #000000; stroke-width: 0.8"/>
      </g>
     </g>
     <g id="text_2">
      <!-- −2 -->
      <g transform="translate(101.048906 188.638438) scale(0.1 -0.1)">
       <defs>
        <path id="DejaVuSans-32" d="M 1228 531 
L 3431 531 
L 3431 0 
L 469 0 
L 469 531 
Q 828 903 1448 1529 
Q 2069 2156 2228 2338 
Q 2531 2678 2651 2914 
Q 2772 3150 2772 3378 
Q 2772 3750 2511 3984 
Q 2250 4219 1831 4219 
Q 1534 4219 1204 4116 
Q 875 4013 500 3803 
L 500 4441 
Q 881 4594 1212 4672 
Q 1544 4750 1819 4750 
Q 2544 4750 2975 4387 
Q 3406 4025 3406 3419 
Q 3406 3131 3298 2873 
Q 3191 2616 2906 2266 
Q 2828 2175 2409 1742 
Q 1991 1309 1228 531 
z
" transform="scale(0.015625)"/>
       </defs>
       <use xlink:href="#DejaVuSans-2212"/>
       <use xlink:href="#DejaVuSans-32" x="83.789062"/>
      </g>
     </g>
    </g>
    <g id="xtick_3">
     <g id="line2d_3">
      <g>
       <use xlink:href="#m7e3881c53d" x="152.9" y="174.04" style="stroke: #000000; stroke-width: 0.8"/>
      </g>
     </g>
     <g id="text_3">
      <!-- 0 -->
      <g transform="translate(149.71875 188.638438) scale(0.1 -0.1)">
       <defs>
        <path id="DejaVuSans-30" d="M 2034 4250 
Q 1547 4250 1301 3770 
Q 1056 3291 1056 2328 
Q 1056 1369 1301 889 
Q 1547 409 2034 409 
Q 2525 409 2770 889 
Q 3016 1369 3016 2328 
Q 3016 3291 2770 3770 
Q 2525 4250 2034 4250 
z
M 2034 4750 
Q 2819 4750 3233 4129 
Q 3647 3509 3647 2328 
Q 3647 1150 3233 529 
Q 2819 -91 2034 -91 
Q 1250 -91 836 529 
Q 422 1150 422 2328 
Q 422 3509 836 4129 
Q 1250 4750 2034 4750 
z
" transform="scale(0.015625)"/>
       </defs>
       <use xlink:href="#DejaVuSans-30"/>
      </g>
     </g>
    </g>
    <g id="xtick_4">
     <g id="line2d_4">
      <g>
       <use xlink:href="#m7e3881c53d" x="197.38" y="174.04" style="stroke: #000000; stroke-width: 0.8"/>
      </g>
     </g>
     <g id="text_4">
      <!-- 2 -->
      <g transform="translate(194.19875 188.638438) scale(0.1 -0.1)">
       <use xlink:href="#DejaVuSans-32"/>
      </g>
     </g>
    </g>
    <g id="xtick_5">
     <g id="line2d_5">
      <g>
       <use xlink:href="#m7e3881c53d" x="241.86" y="174.04" style="stroke: #000000; stroke-width: 0.8"/>
      </g>
     </g>
     <g id="text_5">
      <!-- 4 -->
      <g transform="translate(238.67875 188.638438) scale(0.1 -0.1)">
       <use xlink:href="#DejaVuSans-34"/>
      </g>
     </g>
    </g>
    <g id="text_6">
     <!-- AWA:Bira3Ctrl:Ch04 -->
     <g transform="translate(103.345312 202.316563) scale(0.1 -0.1)">
      <defs>
       <path id="DejaVuSans-41" d="M 2188 4044 
L 1331 1722 
L 3047 1722 
L 2188 4044 
z
M 1831 4666 
L 2547 4666 
L 4325 0 
L 3669 0 
L 3244 1197 
L 1141 1197 
L 716 0 
L 50 0 
L 1831 4666 
z
" transform="scale(0.015625)"/>
       <path id="DejaVuSans-57" d="M 213 4666 
L 850 4666 
L 1831 722 
L 2809 4666 
L 3519 4666 
L 4500 722 
L 5478 4666 
L 6119 4666 
L 4947 0 
L 4153 0 
L 3169 4050 
L 2175 0 
L 1381 0 
L 213 4666 
z
" transform="scale(0.015625)"/>
       <path id="DejaVuSans-3a" d="M 750 794 
L 1409 794 
L 1409 0 
L 750 0 
L 750 794 
z
M 750 3309 
L 1409 3309 
L 1409 2516 
L 750 2516 
L 750 3309 
z
" transform="scale(0.015625)"/>
       <path id="DejaVuSans-42" d="M 1259 2228 
L 1259 519 
L 2272 519 
Q 2781 519 3026 730 
Q 3272 941 3272 1375 
Q 3272 1813 3026 2020 
Q 2781 2228 2272 2228 
L 1259 2228 
z
M 1259 4147 
L 1259 2741 
L 2194 2741 
Q 2656 2741 2882 2914 
Q 3109 3088 3109 3444 
Q 3109 3797 2882 3972 
Q 2656 4147 2194 4147 
L 1259 4147 
z
M 628 4666 
L 2241 4666 
Q 2963 4666 3353 4366 
Q 3744 4066 3744 3513 
Q 3744 3084 3544 2831 
Q 3344 2578 2956 2516 
Q 3422 2416 3680 2098 
Q 3938 1781 3938 1306 
Q 3938 681 3513 340 
Q 3088 0 2303 0 
L 628 0 
L 628 4666 
z
" transform="scale(0.015625)"/>
       <path id="DejaVuSans-69" d="M 603 3500 
L 1178 3500 
L 1178 0 
L 603 0 
L 603 3500 
z
M 603 4863 
L 1178 4863 
L 1178 4134 
L 603 4134 
L 603 4863 
z
" transform="scale(0.015625)"/>
       <path id="DejaVuSans-72" d="M 2631 2963 
Q 2534 3019 2420 3045 
Q 2306 3072 2169 3072 
Q 1681 3072 1420 2755 
Q 1159 2438 1159 1844 
L 1159 0 
L 581 0 
L 581 3500 
L 1159 3500 
L 1159 2956 
Q 1341 3275 1631 3429 
Q 1922 3584 2338 3584 
Q 2397 3584 2469 3576 
Q 2541 3569 2628 3553 
L 2631 2963 
z
" transform="scale(0.015625)"/>
       <path id="DejaVuSans-61" d="M 2194 1759 
Q 1497 1759 1228 1600 
Q 959 1441 959 1056 
Q 959 750 1161 570 
Q 1363 391 1709 391 
Q 2188 391 2477 730 
Q 2766 1069 2766 1631 
L 2766 1759 
L 2194 1759 
z
M 3341 1997 
L 3341 0 
L 2766 0 
L 2766 531 
Q 2569 213 2275 61 
Q 1981 -91 1556 -91 
Q 1019 -91 701 211 
Q 384 513 384 1019 
Q 384 1609 779 1909 
Q 1175 2209 1959 2209 
L 2766 2209 
L 2766 2266 
Q 2766 2663 2505 2880 
Q 2244 3097 1772 3097 
Q 1472 3097 1187 3025 
Q 903 2953 641 2809 
L 641 3341 
Q 956 3463 1253 3523 
Q 1550 3584 1831 3584 
Q 2591 3584 2966 3190 
Q 3341 2797 3341 1997 
z
" transform="scale(0.015625)"/>
       <path id="DejaVuSans-33" d="M 2597 2516 
Q 3050 2419 3304 2112 
Q 3559 1806 3559 1356 
Q 3559 666 3084 287 
Q 2609 -91 1734 -91 
Q 1441 -91 1130 -33 
Q 819 25 488 141 
L 488 750 
Q 750 597 1062 519 
Q 1375 441 1716 441 
Q 2309 441 2620 675 
Q 2931 909 2931 1356 
Q 2931 1769 2642 2001 
Q 2353 2234 1838 2234 
L 1294 2234 
L 1294 2753 
L 1863 2753 
Q 2328 2753 2575 2939 
Q 2822 3125 2822 3475 
Q 2822 3834 2567 4026 
Q 2313 4219 1838 4219 
Q 1578 4219 1281 4162 
Q 984 4106 628 3988 
L 628 4550 
Q 988 4650 1302 4700 
Q 1616 4750 1894 4750 
Q 2613 4750 3031 4423 
Q 3450 4097 3450 3541 
Q 3450 3153 3228 2886 
Q 3006 2619 2597 2516 
z
" transform="scale(0.015625)"/>
       <path id="DejaVuSans-43" d="M 4122 4306 
L 4122 3641 
Q 3803 3938 3442 4084 
Q 3081 4231 2675 4231 
Q 1875 4231 1450 3742 
Q 1025 3253 1025 2328 
Q 1025 1406 1450 917 
Q 1875 428 2675 428 
Q 3081 428 3442 575 
Q 3803 722 4122 1019 
L 4122 359 
Q 3791 134 3420 21 
Q 3050 -91 2638 -91 
Q 1578 -91 968 557 
Q 359 1206 359 2328 
Q 359 3453 968 4101 
Q 1578 4750 2638 4750 
Q 3056 4750 3426 4639 
Q 3797 4528 4122 4306 
z
" transform="scale(0.015625)"/>
       <path id="DejaVuSans-74" d="M 1172 4494 
L 1172 3500 
L 2356 3500 
L 2356 3053 
L 1172 3053 
L 1172 1153 
Q 1172 725 1289 603 
Q 1406 481 1766 481 
L 2356 481 
L 2356 0 
L 1766 0 
Q 1100 0 847 248 
Q 594 497 594 1153 
L 594 3053 
L 172 3053 
L 172 3500 
L 594 3500 
L 594 4494 
L 1172 4494 
z
" transform="scale(0.015625)"/>
       <path id="DejaVuSans-6c" d="M 603 4863 
L 1178 4863 
L 1178 0 
L 603 0 
L 603 4863 
z
" transform="scale(0.015625)"/>
       <path id="DejaVuSans-68" d="M 3513 2113 
L 3513 0 
L 2938 0 
L 2938 2094 
Q 2938 2591 2744 2837 
Q 2550 3084 2163 3084 
Q 1697 3084 1428 2787 
Q 1159 2491 1159 1978 
L 1159 0 
L 581 0 
L 581 4863 
L 1159 4863 
L 1159 2956 
Q 1366 3272 1645 3428 
Q 1925 3584 2291 3584 
Q 2894 3584 3203 3211 
Q 3513 2838 3513 2113 
z
" transform="scale(0.015625)"/>
      </defs>
      <use xlink:href="#DejaVuSans-41"/>
      <use xlink:href="#DejaVuSans-57" x="62.908203"/>
      <use xlink:href="#DejaVuSans-41" x="156.285156"/>
      <use xlink:href="#DejaVuSans-3a" x="222.943359"/>
      <use xlink:href="#DejaVuSans-42" x="256.634766"/>
      <use xlink:href="#DejaVuSans-69" x="325.238281"/>
      <use xlink:href="#DejaVuSans-72" x="353.021484"/>
      <use xlink:href="#DejaVuSans-61" x="394.134766"/>
      <use xlink:href="#DejaVuSans-33" x="455.414062"/>
      <use xlink:href="#DejaVuSans-43" x="519.037109"/>
      <use xlink:href="#DejaVuSans-74" x="588.861328"/>
      <use xlink:href="#DejaVuSans-72" x="628.070312"/>
      <use xlink:href="#DejaVuSans-6c" x="669.183594"/>
      <use xlink:href="#DejaVuSans-3a" x="696.966797"/>
      <use xlink:href="#DejaVuSans-43" x="730.658203"/>
      <use xlink:href="#DejaVuSans-68" x="800.482422"/>
      <use xlink:href="#DejaVuSans-30" x="863.861328"/>
      <use xlink:href="#DejaVuSans-34" x="927.484375"/>
     </g>
    </g>
   </g>
   <g id="matplotlib.axis_2">
    <g id="ytick_1">
     <g id="line2d_6">
      <defs>
       <path id="m9bf23fb54b" d="M 0 0 
L -3.5 0 
" style="stroke: #000000; stroke-width: 0.8"/>
      </defs>
      <g>
       <use xlink:href="#m9bf23fb54b" x="30.58" y="174.04" style="stroke: #000000; stroke-width: 0.8"/>
      </g>
     </g>
     <g id="text_7">
      <!-- 0 -->
      <g transform="translate(17.2175 177.839219) scale(0.1 -0.1)">
       <use xlink:href="#DejaVuSans-30"/>
      </g>
     </g>
    </g>
    <g id="ytick_2">
     <g id="line2d_7">
      <g>
       <use xlink:href="#m9bf23fb54b" x="30.58" y="134.22" style="stroke: #000000; stroke-width: 0.8"/>
      </g>
     </g>
     <g id="text_8">
      <!-- 10 -->
      <g transform="translate(10.855 138.019219) scale(0.1 -0.1)">
       <defs>
        <path id="DejaVuSans-31" d="M 794 531 
L 1825 531 
L 1825 4091 
L 703 3866 
L 703 4441 
L 1819 4666 
L 2450 4666 
L 2450 531 
L 3481 531 
L 3481 0 
L 794 0 
L 794 531 
z
" transform="scale(0.015625)"/>
       </defs>
       <use xlink:href="#DejaVuSans-31"/>
       <use xlink:href="#DejaVuSans-30" x="63.623047"/>
      </g>
     </g>
    </g>
    <g id="ytick_3">
     <g id="line2d_8">
      <g>
       <use xlink:href="#m9bf23fb54b" x="30.58" y="94.4" style="stroke: #000000; stroke-width: 0.8"/>
      </g>
     </g>
     <g id="text_9">
      <!-- 20 -->
      <g transform="translate(10.855 98.199219) scale(0.1 -0.1)">
       <use xlink:href="#DejaVuSans-32"/>
       <use xlink:href="#DejaVuSans-30" x="63.623047"/>
      </g>
     </g>
    </g>
    <g id="ytick_4">
     <g id="line2d_9">
      <g>
       <use xlink:href="#m9bf23fb54b" x="30.58" y="54.58" style="stroke: #000000; stroke-width: 0.8"/>
      </g>
     </g>
     <g id="text_10">
      <!-- 30 -->
      <g transform="translate(10.855 58.379219) scale(0.1 -0.1)">
       <use xlink:href="#DejaVuSans-33"/>
       <use xlink:href="#DejaVuSans-30" x="63.623047"/>
      </g>
     </g>
    </g>
    <g id="ytick_5">
     <g id="line2d_10">
      <g>
       <use xlink:href="#m9bf23fb54b" x="30.58" y="14.76" style="stroke: #000000; stroke-width: 0.8"/>
      </g>
     </g>
     <g id="text_11">
      <!-- 40 -->
      <g transform="translate(10.855 18.559219) scale(0.1 -0.1)">
       <use xlink:href="#DejaVuSans-34"/>
       <use xlink:href="#DejaVuSans-30" x="63.623047"/>
      </g>
     </g>
    </g>
   </g>
   <g id="line2d_11">
    <path d="M 41.7 93.522987 
L 43.94647 96.578919 
L 46.192929 99.57462 
L 48.439398 102.51012 
L 50.685857 105.385391 
L 52.932327 108.200459 
L 55.178786 110.955299 
L 57.425255 113.649936 
L 59.671714 116.284344 
L 61.918184 118.858549 
L 64.164643 121.372527 
L 66.411112 123.8263 
L 68.657577 126.219853 
L 70.904041 128.553189 
L 73.150505 130.82631 
L 75.396969 133.039215 
L 77.643434 135.191904 
L 79.889898 137.284378 
L 82.136362 139.316636 
L 84.382826 141.288679 
L 86.629291 143.200505 
L 88.875755 145.052117 
L 91.122219 146.843512 
L 93.368684 148.574692 
L 95.615153 150.24566 
L 97.861617 151.856408 
L 100.108082 153.406941 
L 102.354546 154.897258 
L 104.60101 156.32736 
L 106.847474 157.697245 
L 109.093939 159.006915 
L 111.340403 160.25637 
L 113.586867 161.445609 
L 115.833332 162.574632 
L 118.079796 163.643439 
L 120.32626 164.652031 
L 122.572724 165.600407 
L 124.819189 166.488568 
L 127.065653 167.316513 
L 129.312117 168.084242 
L 131.558581 168.791755 
L 133.805051 169.439055 
L 136.05151 170.026136 
L 138.29798 170.553003 
L 140.544439 171.019653 
L 142.790908 171.426089 
L 145.037367 171.772308 
L 147.283837 172.058312 
L 149.530306 172.284101 
L 151.776765 172.449673 
L 154.023235 172.55503 
L 156.269694 172.600171 
L 158.516163 172.585096 
L 160.762633 172.509806 
L 163.009092 172.3743 
L 165.255561 172.178578 
L 167.50202 171.922641 
L 169.74849 171.606488 
L 171.994949 171.23012 
L 174.241419 170.793535 
L 176.487883 170.296734 
L 178.734347 169.739719 
L 180.980811 169.122487 
L 183.227276 168.44504 
L 185.47374 167.707378 
L 187.720204 166.9095 
L 189.966668 166.051406 
L 192.213133 165.133096 
L 194.459597 164.154571 
L 196.706061 163.11583 
L 198.952526 162.016873 
L 201.19899 160.857701 
L 203.445454 159.638313 
L 205.691918 158.358709 
L 207.938383 157.01889 
L 210.184847 155.618855 
L 212.431316 154.158601 
L 214.677781 152.638135 
L 216.924245 151.057453 
L 219.170709 149.416555 
L 221.417174 147.715442 
L 223.663638 145.954113 
L 225.910102 144.132568 
L 228.156566 142.250808 
L 230.403031 140.308832 
L 232.649495 138.306641 
L 234.895959 136.244233 
L 237.142423 134.12161 
L 239.388888 131.938772 
L 241.635357 129.695712 
L 243.881816 127.392448 
L 246.128286 125.028957 
L 248.374745 122.605261 
L 250.621214 120.121338 
L 252.867673 117.577212 
L 255.114143 114.972857 
L 257.360602 112.3083 
L 259.607071 109.583514 
L 261.85353 106.798525 
L 264.1 103.953308 
" clip-path="url(#p3c2b14ff32)" style="fill: none; stroke: #1f77b4; stroke-width: 1.5; stroke-linecap: square"/>
   </g>
   <g id="line2d_12">
    <defs>
     <path id="m78d9b91ba8" d="M 0 1.5 
C 0.397805 1.5 0.77937 1.341951 1.06066 1.06066 
C 1.341951 0.77937 1.5 0.397805 1.5 0 
C 1.5 -0.397805 1.341951 -0.77937 1.06066 -1.06066 
C 0.77937 -1.341951 0.397805 -1.5 0 -1.5 
C -0.397805 -1.5 -0.77937 -1.341951 -1.06066 -1.06066 
C -1.341951 -0.77937 -1.5 -0.397805 -1.5 0 
C -1.5 0.397805 -1.341951 0.77937 -1.06066 1.06066 
C -0.77937 1.341951 -0.397805 1.5 0 1.5 
z
" style="stroke: #1f77b4"/>
    </defs>
    <g clip-path="url(#p3c2b14ff32)">
     <use xlink:href="#m78d9b91ba8" x="152.9" y="172.883145" style="fill: #1f77b4; stroke: #1f77b4"/>
     <use xlink:href="#m78d9b91ba8" x="155.124" y="173.233645" style="fill: #1f77b4; stroke: #1f77b4"/>
     <use xlink:href="#m78d9b91ba8" x="175.14" y="172.826669" style="fill: #1f77b4; stroke: #1f77b4"/>
     <use xlink:href="#m78d9b91ba8" x="197.38" y="164.074153" style="fill: #1f77b4; stroke: #1f77b4"/>
     <use xlink:href="#m78d9b91ba8" x="228.243404" y="137.842724" style="fill: #1f77b4; stroke: #1f77b4"/>
     <use xlink:href="#m78d9b91ba8" x="248.621182" y="126.203613" style="fill: #1f77b4; stroke: #1f77b4"/>
     <use xlink:href="#m78d9b91ba8" x="139.664976" y="169.766135" style="fill: #1f77b4; stroke: #1f77b4"/>
     <use xlink:href="#m78d9b91ba8" x="212.973398" y="151.046303" style="fill: #1f77b4; stroke: #1f77b4"/>
     <use xlink:href="#m78d9b91ba8" x="132.049466" y="167.475052" style="fill: #1f77b4; stroke: #1f77b4"/>
     <use xlink:href="#m78d9b91ba8" x="239.336805" y="130.17524" style="fill: #1f77b4; stroke: #1f77b4"/>
     <use xlink:href="#m78d9b91ba8" x="186.212406" y="169.282908" style="fill: #1f77b4; stroke: #1f77b4"/>
     <use xlink:href="#m78d9b91ba8" x="165.539793" y="173.936783" style="fill: #1f77b4; stroke: #1f77b4"/>
     <use xlink:href="#m78d9b91ba8" x="128.963755" y="166.500577" style="fill: #1f77b4; stroke: #1f77b4"/>
     <use xlink:href="#m78d9b91ba8" x="220.430492" y="145.05421" style="fill: #1f77b4; stroke: #1f77b4"/>
     <use xlink:href="#m78d9b91ba8" x="203.310229" y="159.558864" style="fill: #1f77b4; stroke: #1f77b4"/>
     <use xlink:href="#m78d9b91ba8" x="146.432386" y="171.648311" style="fill: #1f77b4; stroke: #1f77b4"/>
     <use xlink:href="#m78d9b91ba8" x="233.869279" y="134.453309" style="fill: #1f77b4; stroke: #1f77b4"/>
     <use xlink:href="#m78d9b91ba8" x="191.88801" y="166.953808" style="fill: #1f77b4; stroke: #1f77b4"/>
     <use xlink:href="#m78d9b91ba8" x="244.255826" y="126.286387" style="fill: #1f77b4; stroke: #1f77b4"/>
     <use xlink:href="#m78d9b91ba8" x="252.96352" y="121.569584" style="fill: #1f77b4; stroke: #1f77b4"/>
     <use xlink:href="#m78d9b91ba8" x="180.224576" y="171.78217" style="fill: #1f77b4; stroke: #1f77b4"/>
    </g>
   </g>
   <g id="line2d_13">
    <path d="M 105.185589 -1 
L 106.847474 4.270224 
L 109.093939 11.246583 
L 111.340403 18.075243 
L 113.586867 24.756205 
L 115.833332 31.289468 
L 118.079796 37.675032 
L 120.32626 43.912897 
L 122.572724 50.003064 
L 124.819189 55.945532 
L 127.065653 61.740302 
L 129.312117 67.387372 
L 131.558581 72.886744 
L 133.805051 78.23843 
L 136.05151 83.442392 
L 138.29798 88.49868 
L 140.544439 93.407245 
L 142.790908 98.168135 
L 145.037367 102.781304 
L 147.283837 107.246795 
L 149.530306 111.564587 
L 151.776765 115.734661 
L 154.023235 119.757055 
L 156.269694 123.631731 
L 158.516163 127.358727 
L 160.762633 130.938024 
L 163.009092 134.369605 
L 165.255561 137.653503 
L 167.50202 140.789688 
L 169.74849 143.778188 
L 171.994949 146.618976 
L 174.241419 149.312078 
L 176.487883 151.857475 
L 178.734347 154.255174 
L 180.980811 156.505173 
L 183.227276 158.607474 
L 185.47374 160.562076 
L 187.720204 162.36898 
L 189.966668 164.028185 
L 192.213133 165.539691 
L 194.459597 166.903498 
L 196.706061 168.119607 
L 198.952526 169.188017 
L 201.19899 170.108729 
L 203.445454 170.881741 
L 205.691918 171.507055 
L 207.938383 171.984671 
L 210.184847 172.314587 
L 212.431316 172.496805 
L 214.677781 172.531324 
L 216.924245 172.418144 
L 219.170709 172.157266 
L 221.417174 171.748688 
L 223.663638 171.192412 
L 225.910102 170.488438 
L 228.156566 169.636764 
L 230.403031 168.637392 
L 232.649495 167.490322 
L 234.895959 166.195552 
L 237.142423 164.753084 
L 239.388888 163.162917 
L 241.635357 161.425047 
L 243.881816 159.539488 
L 246.128286 157.50622 
L 248.374745 155.325263 
L 250.621214 152.996597 
L 252.867673 150.520244 
L 255.114143 147.89618 
L 257.360602 145.12443 
L 259.607071 142.204967 
L 261.85353 139.137821 
L 264.1 135.922961 
" clip-path="url(#p3c2b14ff32)" style="fill: none; stroke: #2ca02c; stroke-width: 1.5; stroke-linecap: square"/>
   </g>
   <g id="line2d_14">
    <defs>
     <path id="m654774a29a" d="M 0 1.5 
C 0.397805 1.5 0.77937 1.341951 1.06066 1.06066 
C 1.341951 0.77937 1.5 0.397805 1.5 0 
C 1.5 -0.397805 1.341951 -0.77937 1.06066 -1.06066 
C 0.77937 -1.341951 0.397805 -1.5 0 -1.5 
C -0.397805 -1.5 -0.77937 -1.341951 -1.06066 -1.06066 
C -1.341951 -0.77937 -1.5 -0.397805 -1.5 0 
C -1.5 0.397805 -1.341951 0.77937 -1.06066 1.06066 
C -0.77937 1.341951 -0.397805 1.5 0 1.5 
z
" style="stroke: #2ca02c"/>
    </defs>
    <g clip-path="url(#p3c2b14ff32)">
     <use xlink:href="#m654774a29a" x="152.9" y="114.63699" style="fill: #2ca02c; stroke: #2ca02c"/>
     <use xlink:href="#m654774a29a" x="155.124" y="116.409319" style="fill: #2ca02c; stroke: #2ca02c"/>
     <use xlink:href="#m654774a29a" x="175.14" y="150.704863" style="fill: #2ca02c; stroke: #2ca02c"/>
     <use xlink:href="#m654774a29a" x="197.38" y="171.048889" style="fill: #2ca02c; stroke: #2ca02c"/>
     <use xlink:href="#m654774a29a" x="228.243404" y="168.540867" style="fill: #2ca02c; stroke: #2ca02c"/>
     <use xlink:href="#m654774a29a" x="248.621182" y="155.524647" style="fill: #2ca02c; stroke: #2ca02c"/>
     <use xlink:href="#m654774a29a" x="139.664976" y="88.634208" style="fill: #2ca02c; stroke: #2ca02c"/>
     <use xlink:href="#m654774a29a" x="212.973398" y="173.778023" style="fill: #2ca02c; stroke: #2ca02c"/>
     <use xlink:href="#m654774a29a" x="132.049466" y="76.995175" style="fill: #2ca02c; stroke: #2ca02c"/>
     <use xlink:href="#m654774a29a" x="239.336805" y="161.752329" style="fill: #2ca02c; stroke: #2ca02c"/>
     <use xlink:href="#m654774a29a" x="186.212406" y="162.977863" style="fill: #2ca02c; stroke: #2ca02c"/>
     <use xlink:href="#m654774a29a" x="165.539793" y="129.947339" style="fill: #2ca02c; stroke: #2ca02c"/>
     <use xlink:href="#m654774a29a" x="128.963755" y="69.402422" style="fill: #2ca02c; stroke: #2ca02c"/>
     <use xlink:href="#m654774a29a" x="220.430492" y="172.127048" style="fill: #2ca02c; stroke: #2ca02c"/>
     <use xlink:href="#m654774a29a" x="203.310229" y="173.154126" style="fill: #2ca02c; stroke: #2ca02c"/>
     <use xlink:href="#m654774a29a" x="146.432386" y="109.068783" style="fill: #2ca02c; stroke: #2ca02c"/>
     <use xlink:href="#m654774a29a" x="233.869279" y="165.454491" style="fill: #2ca02c; stroke: #2ca02c"/>
     <use xlink:href="#m654774a29a" x="191.88801" y="168.204827" style="fill: #2ca02c; stroke: #2ca02c"/>
     <use xlink:href="#m654774a29a" x="244.255826" y="157.497898" style="fill: #2ca02c; stroke: #2ca02c"/>
     <use xlink:href="#m654774a29a" x="252.96352" y="151.221974" style="fill: #2ca02c; stroke: #2ca02c"/>
     <use xlink:href="#m654774a29a" x="180.224576" y="158.762097" style="fill: #2ca02c; stroke: #2ca02c"/>
    </g>
   </g>
   <g id="patch_3">
    <path d="M 30.58 174.04 
L 30.58 14.76 
" style="fill: none; stroke: #000000; stroke-width: 0.8; stroke-linejoin: miter; stroke-linecap: square"/>
   </g>
   <g id="patch_4">
    <path d="M 275.22 174.04 
L 275.22 14.76 
" style="fill: none; stroke: #000000; stroke-width: 0.8; stroke-linejoin: miter; stroke-linecap: square"/>
   </g>
   <g id="patch_5">
    <path d="M 30.58 174.04 
L 275.22 174.04 
" style="fill: none; stroke: #000000; stroke-width: 0.8; stroke-linejoin: miter; stroke-linecap: square"/>
   </g>
   <g id="patch_6">
    <path d="M 30.58 14.76 
L 275.22 14.76 
" style="fill: none; stroke: #000000; stroke-width: 0.8; stroke-linejoin: miter; stroke-linecap: square"/>
   </g>
   <g id="legend_1">
    <g id="patch_7">
     <path d="M 188.92 57.96 
L 268.22 57.96 
Q 270.22 57.96 270.22 55.96 
L 270.22 21.76 
Q 270.22 19.76 268.22 19.76 
L 188.92 19.76 
Q 186.92 19.76 186.92 21.76 
L 186.92 55.96 
Q 186.92 57.96 188.92 57.96 
z
" style="fill: #ffffff; opacity: 0.8; stroke: #cccccc; stroke-linejoin: miter"/>
    </g>
    <g id="line2d_15">
     <path d="M 190.92 29.36 
L 200.92 29.36 
L 210.92 29.36 
" style="fill: none; stroke: #1f77b4; stroke-width: 1.5; stroke-linecap: square"/>
    </g>
    <g id="text_12">
     <!-- $\sigma_x^2~(mm^2)$ -->
     <g transform="translate(218.92 32.86) scale(0.1 -0.1)">
      <defs>
       <path id="DejaVuSans-Oblique-3c3" d="M 2219 3044 
Q 1744 3044 1422 2700 
Q 1081 2341 969 1747 
Q 844 1119 1044 756 
Q 1241 397 1706 397 
Q 2166 397 2503 759 
Q 2844 1122 2966 1747 
Q 3075 2319 2881 2700 
Q 2700 3044 2219 3044 
z
M 2309 3503 
L 4219 3500 
L 4106 2925 
L 3463 2925 
Q 3706 2438 3575 1747 
Q 3406 888 2884 400 
Q 2359 -91 1609 -91 
Q 856 -91 525 400 
Q 194 888 363 1747 
Q 528 2609 1050 3097 
Q 1484 3503 2309 3503 
z
" transform="scale(0.015625)"/>
       <path id="DejaVuSans-Oblique-78" d="M 3841 3500 
L 2234 1784 
L 3219 0 
L 2559 0 
L 1819 1388 
L 531 0 
L -166 0 
L 1556 1844 
L 641 3500 
L 1300 3500 
L 1972 2234 
L 3144 3500 
L 3841 3500 
z
" transform="scale(0.015625)"/>
       <path id="DejaVuSans-28" d="M 1984 4856 
Q 1566 4138 1362 3434 
Q 1159 2731 1159 2009 
Q 1159 1288 1364 580 
Q 1569 -128 1984 -844 
L 1484 -844 
Q 1016 -109 783 600 
Q 550 1309 550 2009 
Q 550 2706 781 3412 
Q 1013 4119 1484 4856 
L 1984 4856 
z
" transform="scale(0.015625)"/>
       <path id="DejaVuSans-Oblique-6d" d="M 5747 2113 
L 5338 0 
L 4763 0 
L 5166 2094 
Q 5191 2228 5203 2325 
Q 5216 2422 5216 2491 
Q 5216 2772 5059 2928 
Q 4903 3084 4622 3084 
Q 4203 3084 3875 2770 
Q 3547 2456 3450 1953 
L 3066 0 
L 2491 0 
L 2900 2094 
Q 2925 2209 2937 2307 
Q 2950 2406 2950 2484 
Q 2950 2769 2794 2926 
Q 2638 3084 2363 3084 
Q 1938 3084 1609 2770 
Q 1281 2456 1184 1953 
L 800 0 
L 225 0 
L 909 3500 
L 1484 3500 
L 1375 2956 
Q 1609 3263 1923 3423 
Q 2238 3584 2597 3584 
Q 2978 3584 3223 3384 
Q 3469 3184 3519 2828 
Q 3781 3197 4126 3390 
Q 4472 3584 4856 3584 
Q 5306 3584 5551 3325 
Q 5797 3066 5797 2591 
Q 5797 2488 5784 2364 
Q 5772 2241 5747 2113 
z
" transform="scale(0.015625)"/>
       <path id="DejaVuSans-29" d="M 513 4856 
L 1013 4856 
Q 1481 4119 1714 3412 
Q 1947 2706 1947 2009 
Q 1947 1309 1714 600 
Q 1481 -109 1013 -844 
L 513 -844 
Q 928 -128 1133 580 
Q 1338 1288 1338 2009 
Q 1338 2731 1133 3434 
Q 928 4138 513 4856 
z
" transform="scale(0.015625)"/>
      </defs>
      <use xlink:href="#DejaVuSans-Oblique-3c3" transform="translate(0 0.765625)"/>
      <use xlink:href="#DejaVuSans-32" transform="translate(67.851615 39.046875) scale(0.7)"/>
      <use xlink:href="#DejaVuSans-Oblique-78" transform="translate(63.378906 -26.578125) scale(0.7)"/>
      <use xlink:href="#DejaVuSans-28" transform="translate(147.592501 0.765625)"/>
      <use xlink:href="#DejaVuSans-Oblique-6d" transform="translate(186.606173 0.765625)"/>
      <use xlink:href="#DejaVuSans-Oblique-6d" transform="translate(284.018282 0.765625)"/>
      <use xlink:href="#DejaVuSans-32" transform="translate(386.080287 39.046875) scale(0.7)"/>
      <use xlink:href="#DejaVuSans-29" transform="translate(433.350795 0.765625)"/>
     </g>
    </g>
    <g id="line2d_16">
     <path d="M 190.92 46.26 
L 200.92 46.26 
L 210.92 46.26 
" style="fill: none; stroke: #2ca02c; stroke-width: 1.5; stroke-linecap: square"/>
    </g>
    <g id="text_13">
     <!-- $\sigma_y^2~(mm^2)$ -->
     <g transform="translate(218.92 49.76) scale(0.1 -0.1)">
      <defs>
       <path id="DejaVuSans-Oblique-79" d="M 1588 -325 
Q 1188 -997 936 -1164 
Q 684 -1331 294 -1331 
L -159 -1331 
L -63 -850 
L 269 -850 
Q 509 -850 678 -719 
Q 847 -588 1056 -206 
L 1234 128 
L 459 3500 
L 1069 3500 
L 1650 819 
L 3256 3500 
L 3859 3500 
L 1588 -325 
z
" transform="scale(0.015625)"/>
      </defs>
      <use xlink:href="#DejaVuSans-Oblique-3c3" transform="translate(0 0.765625)"/>
      <use xlink:href="#DejaVuSans-32" transform="translate(67.851615 39.046875) scale(0.7)"/>
      <use xlink:href="#DejaVuSans-Oblique-79" transform="translate(63.378906 -26.578125) scale(0.7)"/>
      <use xlink:href="#DejaVuSans-28" transform="translate(147.592501 0.765625)"/>
      <use xlink:href="#DejaVuSans-Oblique-6d" transform="translate(186.606173 0.765625)"/>
      <use xlink:href="#DejaVuSans-Oblique-6d" transform="translate(284.018282 0.765625)"/>
      <use xlink:href="#DejaVuSans-32" transform="translate(386.080287 39.046875) scale(0.7)"/>
      <use xlink:href="#DejaVuSans-29" transform="translate(433.350795 0.765625)"/>
     </g>
    </g>
   </g>
  </g>
  <g id="axes_2">
   <g id="patch_8">
    <path d="M 320.56 174.04 
L 565.2 174.04 
L 565.2 14.76 
L 320.56 14.76 
z
" style="fill: #ffffff"/>
   </g>
   <g id="PolyCollection_3">
    <path d="M 331.68 25.944881 
L 331.68 27.955991 
L 333.92647 31.138386 
L 336.172929 35.104293 
L 338.419398 39.141793 
L 340.665857 43.191436 
L 342.912327 47.227336 
L 345.158786 51.230316 
L 347.405255 55.184042 
L 349.651714 59.073883 
L 351.898184 62.886761 
L 354.144643 66.610902 
L 356.391112 70.235953 
L 358.637577 73.752851 
L 360.884041 77.15392 
L 363.130505 80.432845 
L 365.376969 83.58469 
L 367.623434 86.605916 
L 369.869898 89.494385 
L 372.116362 92.24938 
L 374.362826 94.871604 
L 376.609291 97.363192 
L 378.855755 99.72771 
L 381.102219 101.970154 
L 383.348684 104.096938 
L 385.595153 106.115879 
L 387.841617 108.036148 
L 390.088082 109.868247 
L 392.334546 111.623927 
L 394.58101 113.316087 
L 396.827474 114.958654 
L 399.073939 116.566402 
L 401.320403 118.154732 
L 403.566867 119.739392 
L 405.813332 121.336144 
L 408.059796 122.960435 
L 410.30626 124.627274 
L 412.552724 126.352061 
L 414.799189 128.15515 
L 417.045653 130.077207 
L 419.292117 132.168826 
L 421.538581 134.314732 
L 423.785051 136.325811 
L 426.03151 138.164902 
L 428.27798 139.882305 
L 430.524439 141.548784 
L 432.770908 143.210109 
L 435.017367 144.874564 
L 437.263837 146.537437 
L 439.510306 148.198897 
L 441.756765 149.876641 
L 444.003235 151.608204 
L 446.249694 153.414245 
L 448.496163 155.269734 
L 450.742633 157.132727 
L 452.989092 158.973604 
L 455.235561 160.770666 
L 457.48202 162.481521 
L 459.72849 164.018728 
L 461.974949 165.275854 
L 464.221419 166.172071 
L 466.467883 166.67508 
L 468.714347 166.8 
L 470.960811 166.599052 
L 473.207276 166.150679 
L 475.45374 165.550146 
L 477.700204 164.893997 
L 479.946668 164.249858 
L 482.193133 163.649702 
L 484.439597 163.097809 
L 486.686061 162.576312 
L 488.932526 162.057094 
L 491.17899 161.503913 
L 493.425454 160.877496 
L 495.671918 160.138992 
L 497.918383 159.253171 
L 500.164847 158.205869 
L 502.411316 157.01234 
L 504.657781 155.703277 
L 506.904245 154.301036 
L 509.150709 152.820956 
L 511.397174 151.282194 
L 513.643638 149.702106 
L 515.890102 148.097492 
L 518.136566 146.495948 
L 520.383031 144.928875 
L 522.629495 143.414653 
L 524.875959 141.959025 
L 527.122423 140.556288 
L 529.368888 139.193125 
L 531.615357 137.854565 
L 533.861816 136.524021 
L 536.108286 135.193429 
L 538.354745 133.870159 
L 540.601214 132.574278 
L 542.847673 131.313406 
L 545.094143 130.06289 
L 547.340602 128.774992 
L 549.587071 127.415229 
L 551.83353 126.017583 
L 554.08 124.771936 
L 554.08 122.78844 
L 554.08 122.78844 
L 551.83353 124.214959 
L 549.587071 125.512934 
L 547.340602 126.867165 
L 545.094143 128.304798 
L 542.847673 129.782172 
L 540.601214 131.239321 
L 538.354745 132.638234 
L 536.108286 133.97931 
L 533.861816 135.288247 
L 531.615357 136.591494 
L 529.368888 137.910156 
L 527.122423 139.259018 
L 524.875959 140.649142 
L 522.629495 142.083955 
L 520.383031 143.562768 
L 518.136566 145.082281 
L 515.890102 146.635546 
L 513.643638 148.212491 
L 511.397174 149.788961 
L 509.150709 151.327658 
L 506.904245 152.796745 
L 504.657781 154.173973 
L 502.411316 155.440041 
L 500.164847 156.588213 
L 497.918383 157.626798 
L 495.671918 158.560453 
L 493.425454 159.382291 
L 491.17899 160.088481 
L 488.932526 160.698056 
L 486.686061 161.24691 
L 484.439597 161.777001 
L 482.193133 162.326926 
L 479.946668 162.919285 
L 477.700204 163.557153 
L 475.45374 164.212569 
L 473.207276 164.818765 
L 470.960811 165.274396 
L 468.714347 165.461385 
L 466.467883 165.282097 
L 464.221419 164.689018 
L 461.974949 163.700071 
L 459.72849 162.385485 
L 457.48202 160.829819 
L 455.235561 159.112796 
L 452.989092 157.312628 
L 450.742633 155.505292 
L 448.496163 153.741425 
L 446.249694 152.027579 
L 444.003235 150.3313 
L 441.756765 148.61938 
L 439.510306 146.894515 
L 437.263837 145.174202 
L 435.017367 143.463243 
L 432.770908 141.762229 
L 430.524439 140.069203 
L 428.27798 138.372901 
L 426.03151 136.656205 
L 423.785051 134.893486 
L 421.538581 133.039844 
L 419.292117 131.00029 
L 417.045653 128.579019 
L 414.799189 125.683298 
L 412.552724 122.392859 
L 410.30626 118.776525 
L 408.059796 114.881436 
L 405.813332 110.748489 
L 403.566867 106.416982 
L 401.320403 101.925526 
L 399.073939 97.312004 
L 396.827474 92.61332 
L 394.58101 87.865144 
L 392.334546 83.101714 
L 390.088082 78.355682 
L 387.841617 73.658014 
L 385.595153 69.037925 
L 383.348684 64.522839 
L 381.102219 60.138422 
L 378.855755 55.90852 
L 376.609291 51.855226 
L 374.362826 47.998888 
L 372.116362 44.358142 
L 369.869898 40.949933 
L 367.623434 37.789542 
L 365.376969 34.890607 
L 363.130505 32.265132 
L 360.884041 29.923496 
L 358.637577 27.87444 
L 356.391112 26.125056 
L 354.144643 24.680745 
L 351.898184 23.545188 
L 349.651714 22.720241 
L 347.405255 22.205876 
L 345.158786 22 
L 342.912327 22.098232 
L 340.665857 22.493429 
L 338.419398 23.174495 
L 336.172929 24.122149 
L 333.92647 25.281931 
L 331.68 25.944881 
z
" clip-path="url(#p8a49990051)" style="fill: #ff7f0e; fill-opacity: 0.25"/>
   </g>
   <g id="matplotlib.axis_3">
    <g id="xtick_6">
     <g id="line2d_17">
      <g>
       <use xlink:href="#m7e3881c53d" x="353.92" y="174.04" style="stroke: #000000; stroke-width: 0.8"/>
      </g>
     </g>
     <g id="text_14">
      <!-- −4 -->
      <g transform="translate(346.548906 188.638438) scale(0.1 -0.1)">
       <use xlink:href="#DejaVuSans-2212"/>
       <use xlink:href="#DejaVuSans-34" x="83.789062"/>
      </g>
     </g>
    </g>
    <g id="xtick_7">
     <g id="line2d_18">
      <g>
       <use xlink:href="#m7e3881c53d" x="398.4" y="174.04" style="stroke: #000000; stroke-width: 0.8"/>
      </g>
     </g>
     <g id="text_15">
      <!-- −2 -->
      <g transform="translate(391.028906 188.638438) scale(0.1 -0.1)">
       <use xlink:href="#DejaVuSans-2212"/>
       <use xlink:href="#DejaVuSans-32" x="83.789062"/>
      </g>
     </g>
    </g>
    <g id="xtick_8">
     <g id="line2d_19">
      <g>
       <use xlink:href="#m7e3881c53d" x="442.88" y="174.04" style="stroke: #000000; stroke-width: 0.8"/>
      </g>
     </g>
     <g id="text_16">
      <!-- 0 -->
      <g transform="translate(439.69875 188.638438) scale(0.1 -0.1)">
       <use xlink:href="#DejaVuSans-30"/>
      </g>
     </g>
    </g>
    <g id="xtick_9">
     <g id="line2d_20">
      <g>
       <use xlink:href="#m7e3881c53d" x="487.36" y="174.04" style="stroke: #000000; stroke-width: 0.8"/>
      </g>
     </g>
     <g id="text_17">
      <!-- 2 -->
      <g transform="translate(484.17875 188.638438) scale(0.1 -0.1)">
       <use xlink:href="#DejaVuSans-32"/>
      </g>
     </g>
    </g>
    <g id="xtick_10">
     <g id="line2d_21">
      <g>
       <use xlink:href="#m7e3881c53d" x="531.84" y="174.04" style="stroke: #000000; stroke-width: 0.8"/>
      </g>
     </g>
     <g id="text_18">
      <!-- 4 -->
      <g transform="translate(528.65875 188.638438) scale(0.1 -0.1)">
       <use xlink:href="#DejaVuSans-34"/>
      </g>
     </g>
    </g>
    <g id="text_19">
     <!-- AWA:Bira3Ctrl:Ch04 -->
     <g transform="translate(393.325312 202.316563) scale(0.1 -0.1)">
      <use xlink:href="#DejaVuSans-41"/>
      <use xlink:href="#DejaVuSans-57" x="62.908203"/>
      <use xlink:href="#DejaVuSans-41" x="156.285156"/>
      <use xlink:href="#DejaVuSans-3a" x="222.943359"/>
      <use xlink:href="#DejaVuSans-42" x="256.634766"/>
      <use xlink:href="#DejaVuSans-69" x="325.238281"/>
      <use xlink:href="#DejaVuSans-72" x="353.021484"/>
      <use xlink:href="#DejaVuSans-61" x="394.134766"/>
      <use xlink:href="#DejaVuSans-33" x="455.414062"/>
      <use xlink:href="#DejaVuSans-43" x="519.037109"/>
      <use xlink:href="#DejaVuSans-74" x="588.861328"/>
      <use xlink:href="#DejaVuSans-72" x="628.070312"/>
      <use xlink:href="#DejaVuSans-6c" x="669.183594"/>
      <use xlink:href="#DejaVuSans-3a" x="696.966797"/>
      <use xlink:href="#DejaVuSans-43" x="730.658203"/>
      <use xlink:href="#DejaVuSans-68" x="800.482422"/>
      <use xlink:href="#DejaVuSans-30" x="863.861328"/>
      <use xlink:href="#DejaVuSans-34" x="927.484375"/>
     </g>
    </g>
   </g>
   <g id="matplotlib.axis_4">
    <g id="ytick_6">
     <g id="line2d_22">
      <g>
       <use xlink:href="#m9bf23fb54b" x="320.56" y="156.178586" style="stroke: #000000; stroke-width: 0.8"/>
      </g>
     </g>
     <g id="text_20">
      <!-- −250 -->
      <g transform="translate(286.092813 159.977805) scale(0.1 -0.1)">
       <defs>
        <path id="DejaVuSans-35" d="M 691 4666 
L 3169 4666 
L 3169 4134 
L 1269 4134 
L 1269 2991 
Q 1406 3038 1543 3061 
Q 1681 3084 1819 3084 
Q 2600 3084 3056 2656 
Q 3513 2228 3513 1497 
Q 3513 744 3044 326 
Q 2575 -91 1722 -91 
Q 1428 -91 1123 -41 
Q 819 9 494 109 
L 494 744 
Q 775 591 1075 516 
Q 1375 441 1709 441 
Q 2250 441 2565 725 
Q 2881 1009 2881 1497 
Q 2881 1984 2565 2268 
Q 2250 2553 1709 2553 
Q 1456 2553 1204 2497 
Q 953 2441 691 2322 
L 691 4666 
z
" transform="scale(0.015625)"/>
       </defs>
       <use xlink:href="#DejaVuSans-2212"/>
       <use xlink:href="#DejaVuSans-32" x="83.789062"/>
       <use xlink:href="#DejaVuSans-35" x="147.412109"/>
       <use xlink:href="#DejaVuSans-30" x="211.035156"/>
      </g>
     </g>
    </g>
    <g id="ytick_7">
     <g id="line2d_23">
      <g>
       <use xlink:href="#m9bf23fb54b" x="320.56" y="130.331213" style="stroke: #000000; stroke-width: 0.8"/>
      </g>
     </g>
     <g id="text_21">
      <!-- 0 -->
      <g transform="translate(307.1975 134.130431) scale(0.1 -0.1)">
       <use xlink:href="#DejaVuSans-30"/>
      </g>
     </g>
    </g>
    <g id="ytick_8">
     <g id="line2d_24">
      <g>
       <use xlink:href="#m9bf23fb54b" x="320.56" y="104.483839" style="stroke: #000000; stroke-width: 0.8"/>
      </g>
     </g>
     <g id="text_22">
      <!-- 250 -->
      <g transform="translate(294.4725 108.283058) scale(0.1 -0.1)">
       <use xlink:href="#DejaVuSans-32"/>
       <use xlink:href="#DejaVuSans-35" x="63.623047"/>
       <use xlink:href="#DejaVuSans-30" x="127.246094"/>
      </g>
     </g>
    </g>
    <g id="ytick_9">
     <g id="line2d_25">
      <g>
       <use xlink:href="#m9bf23fb54b" x="320.56" y="78.636466" style="stroke: #000000; stroke-width: 0.8"/>
      </g>
     </g>
     <g id="text_23">
      <!-- 500 -->
      <g transform="translate(294.4725 82.435685) scale(0.1 -0.1)">
       <use xlink:href="#DejaVuSans-35"/>
       <use xlink:href="#DejaVuSans-30" x="63.623047"/>
       <use xlink:href="#DejaVuSans-30" x="127.246094"/>
      </g>
     </g>
    </g>
    <g id="ytick_10">
     <g id="line2d_26">
      <g>
       <use xlink:href="#m9bf23fb54b" x="320.56" y="52.789093" style="stroke: #000000; stroke-width: 0.8"/>
      </g>
     </g>
     <g id="text_24">
      <!-- 750 -->
      <g transform="translate(294.4725 56.588312) scale(0.1 -0.1)">
       <defs>
        <path id="DejaVuSans-37" d="M 525 4666 
L 3525 4666 
L 3525 4397 
L 1831 0 
L 1172 0 
L 2766 4134 
L 525 4134 
L 525 4666 
z
" transform="scale(0.015625)"/>
       </defs>
       <use xlink:href="#DejaVuSans-37"/>
       <use xlink:href="#DejaVuSans-35" x="63.623047"/>
       <use xlink:href="#DejaVuSans-30" x="127.246094"/>
      </g>
     </g>
    </g>
    <g id="ytick_11">
     <g id="line2d_27">
      <g>
       <use xlink:href="#m9bf23fb54b" x="320.56" y="26.94172" style="stroke: #000000; stroke-width: 0.8"/>
      </g>
     </g>
     <g id="text_25">
      <!-- 1000 -->
      <g transform="translate(288.11 30.740938) scale(0.1 -0.1)">
       <use xlink:href="#DejaVuSans-31"/>
       <use xlink:href="#DejaVuSans-30" x="63.623047"/>
       <use xlink:href="#DejaVuSans-30" x="127.246094"/>
       <use xlink:href="#DejaVuSans-30" x="190.869141"/>
      </g>
     </g>
    </g>
   </g>
   <g id="line2d_28">
    <path d="M 331.68 26.950436 
L 333.92647 28.210158 
L 336.172929 29.613221 
L 338.419398 31.158144 
L 340.665857 32.842432 
L 342.912327 34.662784 
L 345.158786 36.615158 
L 347.405255 38.694959 
L 349.651714 40.897062 
L 351.898184 43.215974 
L 354.144643 45.645823 
L 356.391112 48.180505 
L 358.637577 50.813646 
L 360.884041 53.538708 
L 363.130505 56.348988 
L 365.376969 59.237648 
L 367.623434 62.197729 
L 369.869898 65.222159 
L 372.116362 68.303761 
L 374.362826 71.435246 
L 376.609291 74.609209 
L 378.855755 77.818115 
L 381.102219 81.054288 
L 383.348684 84.309889 
L 385.595153 87.576902 
L 387.841617 90.847081 
L 390.088082 94.111965 
L 392.334546 97.36282 
L 394.58101 100.590615 
L 396.827474 103.785987 
L 399.073939 106.939203 
L 401.320403 110.040129 
L 403.566867 113.078187 
L 405.813332 116.042316 
L 408.059796 118.920935 
L 410.30626 121.701899 
L 412.552724 124.37246 
L 414.799189 126.919224 
L 417.045653 129.328113 
L 419.292117 131.584558 
L 421.538581 133.677288 
L 423.785051 135.609648 
L 426.03151 137.410553 
L 428.27798 139.127603 
L 430.524439 140.808993 
L 432.770908 142.486169 
L 435.017367 144.168903 
L 437.263837 145.85582 
L 439.510306 147.546706 
L 441.756765 149.24801 
L 444.003235 150.969752 
L 446.249694 152.720912 
L 448.496163 154.50558 
L 450.742633 156.319009 
L 452.989092 158.143116 
L 455.235561 159.941731 
L 457.48202 161.65567 
L 459.72849 163.202106 
L 461.974949 164.487963 
L 464.221419 165.430544 
L 466.467883 165.978588 
L 468.714347 166.130692 
L 470.960811 165.936724 
L 473.207276 165.484722 
L 475.45374 164.881358 
L 477.700204 164.225575 
L 479.946668 163.584571 
L 482.193133 162.988314 
L 484.439597 162.437405 
L 486.686061 161.911611 
L 488.932526 161.377575 
L 491.17899 160.796197 
L 493.425454 160.129894 
L 495.671918 159.349722 
L 497.918383 158.439985 
L 500.164847 157.397041 
L 502.411316 156.226191 
L 504.657781 154.938625 
L 506.904245 153.548891 
L 509.150709 152.074307 
L 511.397174 150.535578 
L 513.643638 148.957298 
L 515.890102 147.366519 
L 518.136566 145.789114 
L 520.383031 144.245822 
L 522.629495 142.749304 
L 524.875959 141.304083 
L 527.122423 139.907653 
L 529.368888 138.55164 
L 531.615357 137.223029 
L 533.861816 135.906134 
L 536.108286 134.58637 
L 538.354745 133.254197 
L 540.601214 131.906799 
L 542.847673 130.547789 
L 545.094143 129.183844 
L 547.340602 127.821078 
L 549.587071 126.464081 
L 551.83353 125.116271 
L 554.08 123.780188 
" clip-path="url(#p8a49990051)" style="fill: none; stroke: #ff7f0e; stroke-width: 1.5; stroke-linecap: square"/>
   </g>
   <g id="line2d_29">
    <defs>
     <path id="mb354081ded" d="M 0 1.5 
C 0.397805 1.5 0.77937 1.341951 1.06066 1.06066 
C 1.341951 0.77937 1.5 0.397805 1.5 0 
C 1.5 -0.397805 1.341951 -0.77937 1.06066 -1.06066 
C 0.77937 -1.341951 0.397805 -1.5 0 -1.5 
C -0.397805 -1.5 -0.77937 -1.341951 -1.06066 -1.06066 
C -1.341951 -0.77937 -1.5 -0.397805 -1.5 0 
C -1.5 0.397805 -1.341951 0.77937 -1.06066 1.06066 
C -0.77937 1.341951 -0.397805 1.5 0 1.5 
z
" style="stroke: #ff7f0e"/>
    </defs>
    <g clip-path="url(#p8a49990051)">
     <use xlink:href="#mb354081ded" x="442.88" y="150.071147" style="fill: #ff7f0e; stroke: #ff7f0e"/>
     <use xlink:href="#mb354081ded" x="445.104" y="151.853852" style="fill: #ff7f0e; stroke: #ff7f0e"/>
     <use xlink:href="#mb354081ded" x="465.12" y="166.445284" style="fill: #ff7f0e; stroke: #ff7f0e"/>
     <use xlink:href="#mb354081ded" x="487.36" y="161.756178" style="fill: #ff7f0e; stroke: #ff7f0e"/>
     <use xlink:href="#mb354081ded" x="331.68" y="26.94172" style="fill: #ff7f0e; stroke: #ff7f0e"/>
     <use xlink:href="#mb354081ded" x="554.08" y="123.786691" style="fill: #ff7f0e; stroke: #ff7f0e"/>
     <use xlink:href="#mb354081ded" x="518.223404" y="145.61972" style="fill: #ff7f0e; stroke: #ff7f0e"/>
     <use xlink:href="#mb354081ded" x="538.601182" y="133.218426" style="fill: #ff7f0e; stroke: #ff7f0e"/>
     <use xlink:href="#mb354081ded" x="429.644976" y="139.495827" style="fill: #ff7f0e; stroke: #ff7f0e"/>
     <use xlink:href="#mb354081ded" x="502.953398" y="155.853073" style="fill: #ff7f0e; stroke: #ff7f0e"/>
     <use xlink:href="#mb354081ded" x="422.029466" y="134.842658" style="fill: #ff7f0e; stroke: #ff7f0e"/>
     <use xlink:href="#mb354081ded" x="529.316805" y="138.513407" style="fill: #ff7f0e; stroke: #ff7f0e"/>
     <use xlink:href="#mb354081ded" x="416.603462" y="128.632652" style="fill: #ff7f0e; stroke: #ff7f0e"/>
     <use xlink:href="#mb354081ded" x="476.192406" y="163.901814" style="fill: #ff7f0e; stroke: #ff7f0e"/>
     <use xlink:href="#mb354081ded" x="455.519793" y="159.627653" style="fill: #ff7f0e; stroke: #ff7f0e"/>
     <use xlink:href="#mb354081ded" x="418.943755" y="131.143229" style="fill: #ff7f0e; stroke: #ff7f0e"/>
     <use xlink:href="#mb354081ded" x="510.410492" y="151.315389" style="fill: #ff7f0e; stroke: #ff7f0e"/>
     <use xlink:href="#mb354081ded" x="493.290229" y="160.39222" style="fill: #ff7f0e; stroke: #ff7f0e"/>
     <use xlink:href="#mb354081ded" x="436.412386" y="145.578525" style="fill: #ff7f0e; stroke: #ff7f0e"/>
     <use xlink:href="#mb354081ded" x="523.849279" y="141.954164" style="fill: #ff7f0e; stroke: #ff7f0e"/>
     <use xlink:href="#mb354081ded" x="481.86801" y="163.092935" style="fill: #ff7f0e; stroke: #ff7f0e"/>
     <use xlink:href="#mb354081ded" x="534.235826" y="135.770931" style="fill: #ff7f0e; stroke: #ff7f0e"/>
     <use xlink:href="#mb354081ded" x="542.94352" y="130.384497" style="fill: #ff7f0e; stroke: #ff7f0e"/>
     <use xlink:href="#mb354081ded" x="470.204576" y="166.325077" style="fill: #ff7f0e; stroke: #ff7f0e"/>
    </g>
   </g>
   <g id="line2d_30">
    <path d="M 320.56 130.331213 
L 565.2 130.331213 
" clip-path="url(#p8a49990051)" style="fill: none; stroke-dasharray: 5.55,2.4; stroke-dashoffset: 0; stroke: #1f77b4; stroke-width: 1.5"/>
   </g>
   <g id="patch_9">
    <path d="M 320.56 174.04 
L 320.56 14.76 
" style="fill: none; stroke: #000000; stroke-width: 0.8; stroke-linejoin: miter; stroke-linecap: square"/>
   </g>
   <g id="patch_10">
    <path d="M 565.2 174.04 
L 565.2 14.76 
" style="fill: none; stroke: #000000; stroke-width: 0.8; stroke-linejoin: miter; stroke-linecap: square"/>
   </g>
   <g id="patch_11">
    <path d="M 320.56 174.04 
L 565.2 174.04 
" style="fill: none; stroke: #000000; stroke-width: 0.8; stroke-linejoin: miter; stroke-linecap: square"/>
   </g>
   <g id="patch_12">
    <path d="M 320.56 14.76 
L 565.2 14.76 
" style="fill: none; stroke: #000000; stroke-width: 0.8; stroke-linejoin: miter; stroke-linecap: square"/>
   </g>
   <g id="legend_2">
    <g id="patch_13">
     <path d="M 488.615625 37.438125 
L 558.2 37.438125 
Q 560.2 37.438125 560.2 35.438125 
L 560.2 21.76 
Q 560.2 19.76 558.2 19.76 
L 488.615625 19.76 
Q 486.615625 19.76 486.615625 21.76 
L 486.615625 35.438125 
Q 486.615625 37.438125 488.615625 37.438125 
z
" style="fill: #ffffff; opacity: 0.8; stroke: #cccccc; stroke-linejoin: miter"/>
    </g>
    <g id="line2d_31">
     <path d="M 490.615625 27.858438 
L 500.615625 27.858438 
L 510.615625 27.858438 
" style="fill: none; stroke: #ff7f0e; stroke-width: 1.5; stroke-linecap: square"/>
    </g>
    <g id="text_26">
     <!-- penalty -->
     <g transform="translate(518.615625 31.358438) scale(0.1 -0.1)">
      <defs>
       <path id="DejaVuSans-70" d="M 1159 525 
L 1159 -1331 
L 581 -1331 
L 581 3500 
L 1159 3500 
L 1159 2969 
Q 1341 3281 1617 3432 
Q 1894 3584 2278 3584 
Q 2916 3584 3314 3078 
Q 3713 2572 3713 1747 
Q 3713 922 3314 415 
Q 2916 -91 2278 -91 
Q 1894 -91 1617 61 
Q 1341 213 1159 525 
z
M 3116 1747 
Q 3116 2381 2855 2742 
Q 2594 3103 2138 3103 
Q 1681 3103 1420 2742 
Q 1159 2381 1159 1747 
Q 1159 1113 1420 752 
Q 1681 391 2138 391 
Q 2594 391 2855 752 
Q 3116 1113 3116 1747 
z
" transform="scale(0.015625)"/>
       <path id="DejaVuSans-65" d="M 3597 1894 
L 3597 1613 
L 953 1613 
Q 991 1019 1311 708 
Q 1631 397 2203 397 
Q 2534 397 2845 478 
Q 3156 559 3463 722 
L 3463 178 
Q 3153 47 2828 -22 
Q 2503 -91 2169 -91 
Q 1331 -91 842 396 
Q 353 884 353 1716 
Q 353 2575 817 3079 
Q 1281 3584 2069 3584 
Q 2775 3584 3186 3129 
Q 3597 2675 3597 1894 
z
M 3022 2063 
Q 3016 2534 2758 2815 
Q 2500 3097 2075 3097 
Q 1594 3097 1305 2825 
Q 1016 2553 972 2059 
L 3022 2063 
z
" transform="scale(0.015625)"/>
       <path id="DejaVuSans-6e" d="M 3513 2113 
L 3513 0 
L 2938 0 
L 2938 2094 
Q 2938 2591 2744 2837 
Q 2550 3084 2163 3084 
Q 1697 3084 1428 2787 
Q 1159 2491 1159 1978 
L 1159 0 
L 581 0 
L 581 3500 
L 1159 3500 
L 1159 2956 
Q 1366 3272 1645 3428 
Q 1925 3584 2291 3584 
Q 2894 3584 3203 3211 
Q 3513 2838 3513 2113 
z
" transform="scale(0.015625)"/>
       <path id="DejaVuSans-79" d="M 2059 -325 
Q 1816 -950 1584 -1140 
Q 1353 -1331 966 -1331 
L 506 -1331 
L 506 -850 
L 844 -850 
Q 1081 -850 1212 -737 
Q 1344 -625 1503 -206 
L 1606 56 
L 191 3500 
L 800 3500 
L 1894 763 
L 2988 3500 
L 3597 3500 
L 2059 -325 
z
" transform="scale(0.015625)"/>
      </defs>
      <use xlink:href="#DejaVuSans-70"/>
      <use xlink:href="#DejaVuSans-65" x="63.476562"/>
      <use xlink:href="#DejaVuSans-6e" x="125"/>
      <use xlink:href="#DejaVuSans-61" x="188.378906"/>
      <use xlink:href="#DejaVuSans-6c" x="249.658203"/>
      <use xlink:href="#DejaVuSans-74" x="277.441406"/>
      <use xlink:href="#DejaVuSans-79" x="316.650391"/>
     </g>
    </g>
   </g>
  </g>
 </g>
 <defs>
  <clipPath id="p3c2b14ff32">
   <rect x="30.58" y="14.76" width="244.64" height="159.28"/>
  </clipPath>
  <clipPath id="p8a49990051">
   <rect x="320.56" y="14.76" width="244.64" height="159.28"/>
  </clipPath>
 </defs>
</svg>
