<?xml version="1.0" encoding="utf-8" standalone="no"?>
<!DOCTYPE svg PUBLIC "-//W3C//DTD SVG 1.1//EN"
  "http://www.w3.org/Graphics/SVG/1.1/DTD/svg11.dtd">
<svg xmlns:xlink="http://www.w3.org/1999/xlink" width="576pt" height="216pt" viewBox="0 0 576 216" xmlns="http://www.w3.org/2000/svg" version="1.1">
 <metadata>
  <rdf:RDF xmlns:dc="http://purl.org/dc/elements/1.1/" xmlns:cc="http://creativecommons.org/ns#" xmlns:rdf="http://www.w3.org/1999/02/22-rdf-syntax-ns#">
   <cc:Work>
    <dc:type rdf:resource="http://purl.org/dc/dcmitype/StillImage"/>
    <dc:date>2023-06-13T15:53:33.696420</dc:date>
    <dc:format>image/svg+xml</dc:format>
    <dc:creator>
     <cc:Agent>
      <dc:title>Matplotlib v3.7.1, https://matplotlib.org/</dc:title>
     </cc:Agent>
    </dc:creator>
   </cc:Work>
  </rdf:RDF>
 </metadata>
 <defs>
  <style type="text/css">*{stroke-linejoin: round; stroke-linecap: butt}</style>
 </defs>
 <g id="figure_1">
  <g id="patch_1">
   <path d="M 0 216 
L 576 216 
L 576 0 
L 0 0 
z
" style="fill: #ffffff"/>
  </g>
  <g id="axes_1">
   <g id="patch_2">
    <path d="M 30.58 174.04 
L 275.22 174.04 
L 275.22 14.76 
L 30.58 14.76 
z
" style="fill: #ffffff"/>
   </g>
   <g id="PolyCollection_1">
    <path d="M 41.7 80.428417 
L 41.7 104.623487 
L 43.94647 107.336713 
L 46.192929 109.995005 
L 48.439398 112.598392 
L 50.685857 115.146854 
L 52.932327 117.640422 
L 55.178786 120.079079 
L 57.425255 122.462854 
L 59.671714 124.791733 
L 61.918184 127.065746 
L 64.164643 129.28488 
L 66.411112 131.449167 
L 68.657577 133.558602 
L 70.904041 135.613203 
L 73.150505 137.612982 
L 75.396969 139.557955 
L 77.643434 141.448137 
L 79.889898 143.283548 
L 82.136362 145.064208 
L 84.382826 146.790139 
L 86.629291 148.461366 
L 88.875755 150.077919 
L 91.122219 151.639829 
L 93.368684 153.147131 
L 95.615153 154.599871 
L 97.861617 155.998087 
L 100.108082 157.341834 
L 102.354546 158.631172 
L 104.60101 159.86617 
L 106.847474 161.046904 
L 109.093939 162.173462 
L 111.340403 163.245947 
L 113.586867 164.264477 
L 115.833332 165.229184 
L 118.079796 166.140226 
L 120.32626 166.997781 
L 122.572724 167.802054 
L 124.819189 168.553281 
L 127.065653 169.251731 
L 129.312117 169.897708 
L 131.558581 170.491553 
L 133.805051 171.033639 
L 136.05151 171.524361 
L 138.29798 171.964134 
L 140.544439 172.35335 
L 142.790908 172.692364 
L 145.037367 172.981429 
L 147.283837 173.220659 
L 149.530306 173.409961 
L 151.776765 173.549003 
L 154.023235 173.63719 
L 156.269694 173.673678 
L 158.516163 173.657414 
L 160.762633 173.58721 
L 163.009092 173.461814 
L 165.255561 173.279981 
L 167.50202 173.040535 
L 169.74849 172.742396 
L 171.994949 172.384615 
L 174.241419 171.966362 
L 176.487883 171.486943 
L 178.734347 170.945777 
L 180.980811 170.34239 
L 183.227276 169.676407 
L 185.47374 168.947537 
L 187.720204 168.155568 
L 189.966668 167.300363 
L 192.213133 166.381847 
L 194.459597 165.400016 
L 196.706061 164.354927 
L 198.952526 163.246708 
L 201.19899 162.075556 
L 203.445454 160.84175 
L 205.691918 159.545654 
L 207.938383 158.187732 
L 210.184847 156.768557 
L 212.431316 155.288823 
L 214.677781 153.749365 
L 216.924245 152.151145 
L 219.170709 150.495263 
L 221.417174 148.782932 
L 223.663638 147.015443 
L 225.910102 145.194104 
L 228.156566 143.320162 
L 230.403031 141.394723 
L 232.649495 139.41867 
L 234.895959 137.392621 
L 237.142423 135.316907 
L 239.388888 133.191602 
L 241.635357 131.016556 
L 243.881816 128.791491 
L 246.128286 126.515997 
L 248.374745 124.189661 
L 250.621214 121.812021 
L 252.867673 119.382675 
L 255.114143 116.901207 
L 257.360602 114.367285 
L 259.607071 111.780572 
L 261.85353 109.140814 
L 264.1 106.447746 
L 264.1 101.13481 
L 264.1 101.13481 
L 261.85353 104.161486 
L 259.607071 107.120071 
L 257.360602 110.010353 
L 255.114143 112.832027 
L 252.867673 115.584806 
L 250.621214 118.268309 
L 248.374745 120.882168 
L 246.128286 123.425935 
L 243.881816 125.899192 
L 241.635357 128.301483 
L 239.388888 130.632441 
L 237.142423 132.891755 
L 234.895959 135.079287 
L 232.649495 137.195109 
L 230.403031 139.239554 
L 228.156566 141.213239 
L 225.910102 143.117048 
L 223.663638 144.952085 
L 221.417174 146.7196 
L 219.170709 148.420898 
L 216.924245 150.057272 
L 214.677781 151.629934 
L 212.431316 153.139984 
L 210.184847 154.588391 
L 207.938383 155.975977 
L 205.691918 157.303442 
L 203.445454 158.57136 
L 201.19899 159.780193 
L 198.952526 160.930307 
L 196.706061 162.021979 
L 194.459597 163.055409 
L 192.213133 164.030722 
L 189.966668 164.947978 
L 187.720204 165.80717 
L 185.47374 166.608225 
L 183.227276 167.351005 
L 180.980811 168.035298 
L 178.734347 168.660813 
L 176.487883 169.227176 
L 174.241419 169.733912 
L 171.994949 170.180443 
L 169.74849 170.566067 
L 167.50202 170.889964 
L 165.255561 171.151177 
L 163.009092 171.348631 
L 160.762633 171.481148 
L 158.516163 171.547483 
L 156.269694 171.546384 
L 154.023235 171.476663 
L 151.776765 171.337268 
L 149.530306 171.127354 
L 147.283837 170.846326 
L 145.037367 170.49385 
L 142.790908 170.06984 
L 140.544439 169.574401 
L 138.29798 169.007795 
L 136.05151 168.370366 
L 133.805051 167.662519 
L 131.558581 166.884656 
L 129.312117 166.037181 
L 127.065653 165.120465 
L 124.819189 164.134848 
L 122.572724 163.080634 
L 120.32626 161.958093 
L 118.079796 160.767459 
L 115.833332 159.508939 
L 113.586867 158.182711 
L 111.340403 156.788931 
L 109.093939 155.327733 
L 106.847474 153.799235 
L 104.60101 152.203538 
L 102.354546 150.540731 
L 100.108082 148.810892 
L 97.861617 147.014088 
L 95.615153 145.150378 
L 93.368684 143.219811 
L 91.122219 141.222441 
L 88.875755 139.158304 
L 86.629291 137.027436 
L 84.382826 134.829869 
L 82.136362 132.565633 
L 79.889898 130.234751 
L 77.643434 127.837247 
L 75.396969 125.373141 
L 73.150505 122.842451 
L 70.904041 120.245194 
L 68.657577 117.581384 
L 66.411112 114.851036 
L 64.164643 112.054153 
L 61.918184 109.190769 
L 59.671714 106.260864 
L 57.425255 103.264477 
L 55.178786 100.201587 
L 52.932327 97.072231 
L 50.685857 93.876386 
L 48.439398 90.614089 
L 46.192929 87.285315 
L 43.94647 83.8901 
L 41.7 80.428417 
z
" clip-path="url(#p7b0f8b63bd)" style="fill: #1f77b4; fill-opacity: 0.25"/>
   </g>
   <g id="PolyCollection_2">
    <path d="M 41.7 -284.454473 
L 41.7 -240.22018 
L 43.94647 -229.643443 
L 46.192929 -219.203958 
L 48.439398 -208.901617 
L 50.685857 -198.736508 
L 52.932327 -188.708525 
L 55.178786 -178.817751 
L 57.425255 -169.064083 
L 59.671714 -159.447597 
L 61.918184 -149.968189 
L 64.164643 -140.625932 
L 66.411112 -131.420721 
L 68.657577 -122.352603 
L 70.904041 -113.421534 
L 73.150505 -104.627491 
L 75.396969 -95.970448 
L 77.643434 -87.450377 
L 79.889898 -79.067245 
L 82.136362 -70.821018 
L 84.382826 -62.711655 
L 86.629291 -54.739112 
L 88.875755 -46.90334 
L 91.122219 -39.204282 
L 93.368684 -31.641876 
L 95.615153 -24.216032 
L 97.861617 -16.926706 
L 100.108082 -9.773787 
L 102.354546 -2.757171 
L 104.60101 4.123261 
L 106.847474 10.867647 
L 109.093939 17.476143 
L 111.340403 23.94893 
L 113.586867 30.286217 
L 115.833332 36.488245 
L 118.079796 42.555292 
L 120.32626 48.48768 
L 122.572724 54.285781 
L 124.819189 59.950023 
L 127.065653 65.4809 
L 129.312117 70.878971 
L 131.558581 76.144869 
L 133.805051 81.279309 
L 136.05151 86.283012 
L 138.29798 91.15682 
L 140.544439 95.901474 
L 142.790908 100.517734 
L 145.037367 105.006114 
L 147.283837 109.36695 
L 149.530306 113.600143 
L 151.776765 117.705131 
L 154.023235 121.680898 
L 156.269694 125.525856 
L 158.516163 129.238078 
L 160.762633 132.815299 
L 163.009092 136.255126 
L 165.255561 139.555229 
L 167.50202 142.713338 
L 169.74849 145.727443 
L 171.994949 148.595714 
L 174.241419 151.316628 
L 176.487883 153.888855 
L 178.734347 156.311317 
L 180.980811 158.583134 
L 183.227276 160.703603 
L 185.47374 162.672187 
L 187.720204 164.488491 
L 189.966668 166.152252 
L 192.213133 167.66333 
L 194.459597 169.021704 
L 196.706061 170.227473 
L 198.952526 171.280855 
L 201.19899 172.1822 
L 203.445454 172.932002 
L 205.691918 173.530911 
L 207.938383 173.979758 
L 210.184847 174.279578 
L 212.431316 174.43163 
L 214.677781 174.437425 
L 216.924245 174.298734 
L 219.170709 174.017587 
L 221.417174 173.596241 
L 223.663638 173.037116 
L 225.910102 172.342679 
L 228.156566 171.515306 
L 230.403031 170.557107 
L 232.649495 169.469785 
L 234.895959 168.254522 
L 237.142423 166.911957 
L 239.388888 165.442219 
L 241.635357 163.84502 
L 243.881816 162.119797 
L 246.128286 160.265776 
L 248.374745 158.282141 
L 250.621214 156.168028 
L 252.867673 153.922651 
L 255.114143 151.545246 
L 257.360602 149.035166 
L 259.607071 146.391798 
L 261.85353 143.614652 
L 264.1 140.703254 
L 264.1 131.128445 
L 264.1 131.128445 
L 261.85353 134.648058 
L 259.607071 138.006455 
L 257.360602 141.203219 
L 255.114143 144.237805 
L 252.867673 147.109652 
L 250.621214 149.818064 
L 248.374745 152.362325 
L 246.128286 154.741602 
L 243.881816 156.955075 
L 241.635357 159.001887 
L 239.388888 160.881303 
L 237.142423 162.592731 
L 234.895959 164.135894 
L 232.649495 165.51092 
L 230.403031 166.718446 
L 228.156566 167.759659 
L 225.910102 168.636257 
L 223.663638 169.350353 
L 221.417174 169.904321 
L 219.170709 170.30063 
L 216.924245 170.541698 
L 214.677781 170.629783 
L 212.431316 170.566916 
L 210.184847 170.354866 
L 207.938383 169.995144 
L 205.691918 169.489011 
L 203.445454 168.837501 
L 201.19899 168.041444 
L 198.952526 167.101493 
L 196.706061 166.018138 
L 194.459597 164.791732 
L 192.213133 163.422492 
L 189.966668 161.910517 
L 187.720204 160.255785 
L 185.47374 158.458158 
L 183.227276 156.517371 
L 180.980811 154.433032 
L 178.734347 152.2046 
L 176.487883 149.831375 
L 174.241419 147.312475 
L 171.994949 144.646811 
L 169.74849 141.833091 
L 167.50202 138.869738 
L 165.255561 135.754979 
L 163.009092 132.486745 
L 160.762633 129.062828 
L 158.516163 125.480832 
L 156.269694 121.738397 
L 154.023235 117.833295 
L 151.776765 113.763526 
L 149.530306 109.527577 
L 147.283837 105.124354 
L 145.037367 100.553334 
L 142.790908 95.814462 
L 140.544439 90.907986 
L 138.29798 85.834511 
L 136.05151 80.594705 
L 133.805051 75.189402 
L 131.558581 69.619347 
L 129.312117 63.885337 
L 127.065653 57.988061 
L 124.819189 51.928151 
L 122.572724 45.706168 
L 120.32626 39.322604 
L 118.079796 32.777889 
L 115.833332 26.072393 
L 113.586867 19.206439 
L 111.340403 12.180306 
L 109.093939 4.994234 
L 106.847474 -2.351569 
L 104.60101 -9.85692 
L 102.354546 -17.521665 
L 100.108082 -25.345664 
L 97.861617 -33.3288 
L 95.615153 -41.470967 
L 93.368684 -49.772094 
L 91.122219 -58.23206 
L 88.875755 -66.850813 
L 86.629291 -75.628291 
L 84.382826 -84.564438 
L 82.136362 -93.659203 
L 79.889898 -102.912543 
L 77.643434 -112.324417 
L 75.396969 -121.894791 
L 73.150505 -131.623633 
L 70.904041 -141.510913 
L 68.657577 -151.556606 
L 66.411112 -161.760689 
L 64.164643 -172.123166 
L 61.918184 -182.643942 
L 59.671714 -193.3231 
L 57.425255 -204.160524 
L 55.178786 -215.1563 
L 52.932327 -226.310313 
L 50.685857 -237.622655 
L 48.439398 -249.093209 
L 46.192929 -260.722072 
L 43.94647 -272.509126 
L 41.7 -284.454473 
z
" clip-path="url(#p7b0f8b63bd)" style="fill: #2ca02c; fill-opacity: 0.25"/>
   </g>
   <g id="matplotlib.axis_1">
    <g id="xtick_1">
     <g id="line2d_1">
      <defs>
       <path id="m38a79db935" d="M 0 0 
L 0 3.5 
" style="stroke: #000000; stroke-width: 0.8"/>
      </defs>
      <g>
       <use xlink:href="#m38a79db935" x="63.94" y="174.04" style="stroke: #000000; stroke-width: 0.8"/>
      </g>
     </g>
     <g id="text_1">
      <!-- −4 -->
      <g transform="translate(56.568906 188.638438) scale(0.1 -0.1)">
       <defs>
        <path id="DejaVuSans-2212" d="M 678 2272 
L 4684 2272 
L 4684 1741 
L 678 1741 
L 678 2272 
z
" transform="scale(0.015625)"/>
        <path id="DejaVuSans-34" d="M 2419 4116 
L 825 1625 
L 2419 1625 
L 2419 4116 
z
M 2253 4666 
L 3047 4666 
L 3047 1625 
L 3713 1625 
L 3713 1100 
L 3047 1100 
L 3047 0 
L 2419 0 
L 2419 1100 
L 313 1100 
L 313 1709 
L 2253 4666 
z
" transform="scale(0.015625)"/>
       </defs>
       <use xlink:href="#DejaVuSans-2212"/>
       <use xlink:href="#DejaVuSans-34" x="83.789062"/>
      </g>
     </g>
    </g>
    <g id="xtick_2">
     <g id="line2d_2">
      <g>
       <use xlink:href="#m38a79db935" x="108.42" y="174.04" style="stroke: #000000; stroke-width: 0.8"/>
      </g>
     </g>
     <g id="text_2">
      <!-- −2 -->
      <g transform="translate(101.048906 188.638438) scale(0.1 -0.1)">
       <defs>
        <path id="DejaVuSans-32" d="M 1228 531 
L 3431 531 
L 3431 0 
L 469 0 
L 469 531 
Q 828 903 1448 1529 
Q 2069 2156 2228 2338 
Q 2531 2678 2651 2914 
Q 2772 3150 2772 3378 
Q 2772 3750 2511 3984 
Q 2250 4219 1831 4219 
Q 1534 4219 1204 4116 
Q 875 4013 500 3803 
L 500 4441 
Q 881 4594 1212 4672 
Q 1544 4750 1819 4750 
Q 2544 4750 2975 4387 
Q 3406 4025 3406 3419 
Q 3406 3131 3298 2873 
Q 3191 2616 2906 2266 
Q 2828 2175 2409 1742 
Q 1991 1309 1228 531 
z
" transform="scale(0.015625)"/>
       </defs>
       <use xlink:href="#DejaVuSans-2212"/>
       <use xlink:href="#DejaVuSans-32" x="83.789062"/>
      </g>
     </g>
    </g>
    <g id="xtick_3">
     <g id="line2d_3">
      <g>
       <use xlink:href="#m38a79db935" x="152.9" y="174.04" style="stroke: #000000; stroke-width: 0.8"/>
      </g>
     </g>
     <g id="text_3">
      <!-- 0 -->
      <g transform="translate(149.71875 188.638438) scale(0.1 -0.1)">
       <defs>
        <path id="DejaVuSans-30" d="M 2034 4250 
Q 1547 4250 1301 3770 
Q 1056 3291 1056 2328 
Q 1056 1369 1301 889 
Q 1547 409 2034 409 
Q 2525 409 2770 889 
Q 3016 1369 3016 2328 
Q 3016 3291 2770 3770 
Q 2525 4250 2034 4250 
z
M 2034 4750 
Q 2819 4750 3233 4129 
Q 3647 3509 3647 2328 
Q 3647 1150 3233 529 
Q 2819 -91 2034 -91 
Q 1250 -91 836 529 
Q 422 1150 422 2328 
Q 422 3509 836 4129 
Q 1250 4750 2034 4750 
z
" transform="scale(0.015625)"/>
       </defs>
       <use xlink:href="#DejaVuSans-30"/>
      </g>
     </g>
    </g>
    <g id="xtick_4">
     <g id="line2d_4">
      <g>
       <use xlink:href="#m38a79db935" x="197.38" y="174.04" style="stroke: #000000; stroke-width: 0.8"/>
      </g>
     </g>
     <g id="text_4">
      <!-- 2 -->
      <g transform="translate(194.19875 188.638438) scale(0.1 -0.1)">
       <use xlink:href="#DejaVuSans-32"/>
      </g>
     </g>
    </g>
    <g id="xtick_5">
     <g id="line2d_5">
      <g>
       <use xlink:href="#m38a79db935" x="241.86" y="174.04" style="stroke: #000000; stroke-width: 0.8"/>
      </g>
     </g>
     <g id="text_5">
      <!-- 4 -->
      <g transform="translate(238.67875 188.638438) scale(0.1 -0.1)">
       <use xlink:href="#DejaVuSans-34"/>
      </g>
     </g>
    </g>
    <g id="text_6">
     <!-- AWA:Bira3Ctrl:Ch04 -->
     <g transform="translate(103.345312 202.316563) scale(0.1 -0.1)">
      <defs>
       <path id="DejaVuSans-41" d="M 2188 4044 
L 1331 1722 
L 3047 1722 
L 2188 4044 
z
M 1831 4666 
L 2547 4666 
L 4325 0 
L 3669 0 
L 3244 1197 
L 1141 1197 
L 716 0 
L 50 0 
L 1831 4666 
z
" transform="scale(0.015625)"/>
       <path id="DejaVuSans-57" d="M 213 4666 
L 850 4666 
L 1831 722 
L 2809 4666 
L 3519 4666 
L 4500 722 
L 5478 4666 
L 6119 4666 
L 4947 0 
L 4153 0 
L 3169 4050 
L 2175 0 
L 1381 0 
L 213 4666 
z
" transform="scale(0.015625)"/>
       <path id="DejaVuSans-3a" d="M 750 794 
L 1409 794 
L 1409 0 
L 750 0 
L 750 794 
z
M 750 3309 
L 1409 3309 
L 1409 2516 
L 750 2516 
L 750 3309 
z
" transform="scale(0.015625)"/>
       <path id="DejaVuSans-42" d="M 1259 2228 
L 1259 519 
L 2272 519 
Q 2781 519 3026 730 
Q 3272 941 3272 1375 
Q 3272 1813 3026 2020 
Q 2781 2228 2272 2228 
L 1259 2228 
z
M 1259 4147 
L 1259 2741 
L 2194 2741 
Q 2656 2741 2882 2914 
Q 3109 3088 3109 3444 
Q 3109 3797 2882 3972 
Q 2656 4147 2194 4147 
L 1259 4147 
z
M 628 4666 
L 2241 4666 
Q 2963 4666 3353 4366 
Q 3744 4066 3744 3513 
Q 3744 3084 3544 2831 
Q 3344 2578 2956 2516 
Q 3422 2416 3680 2098 
Q 3938 1781 3938 1306 
Q 3938 681 3513 340 
Q 3088 0 2303 0 
L 628 0 
L 628 4666 
z
" transform="scale(0.015625)"/>
       <path id="DejaVuSans-69" d="M 603 3500 
L 1178 3500 
L 1178 0 
L 603 0 
L 603 3500 
z
M 603 4863 
L 1178 4863 
L 1178 4134 
L 603 4134 
L 603 4863 
z
" transform="scale(0.015625)"/>
       <path id="DejaVuSans-72" d="M 2631 2963 
Q 2534 3019 2420 3045 
Q 2306 3072 2169 3072 
Q 1681 3072 1420 2755 
Q 1159 2438 1159 1844 
L 1159 0 
L 581 0 
L 581 3500 
L 1159 3500 
L 1159 2956 
Q 1341 3275 1631 3429 
Q 1922 3584 2338 3584 
Q 2397 3584 2469 3576 
Q 2541 3569 2628 3553 
L 2631 2963 
z
" transform="scale(0.015625)"/>
       <path id="DejaVuSans-61" d="M 2194 1759 
Q 1497 1759 1228 1600 
Q 959 1441 959 1056 
Q 959 750 1161 570 
Q 1363 391 1709 391 
Q 2188 391 2477 730 
Q 2766 1069 2766 1631 
L 2766 1759 
L 2194 1759 
z
M 3341 1997 
L 3341 0 
L 2766 0 
L 2766 531 
Q 2569 213 2275 61 
Q 1981 -91 1556 -91 
Q 1019 -91 701 211 
Q 384 513 384 1019 
Q 384 1609 779 1909 
Q 1175 2209 1959 2209 
L 2766 2209 
L 2766 2266 
Q 2766 2663 2505 2880 
Q 2244 3097 1772 3097 
Q 1472 3097 1187 3025 
Q 903 2953 641 2809 
L 641 3341 
Q 956 3463 1253 3523 
Q 1550 3584 1831 3584 
Q 2591 3584 2966 3190 
Q 3341 2797 3341 1997 
z
" transform="scale(0.015625)"/>
       <path id="DejaVuSans-33" d="M 2597 2516 
Q 3050 2419 3304 2112 
Q 3559 1806 3559 1356 
Q 3559 666 3084 287 
Q 2609 -91 1734 -91 
Q 1441 -91 1130 -33 
Q 819 25 488 141 
L 488 750 
Q 750 597 1062 519 
Q 1375 441 1716 441 
Q 2309 441 2620 675 
Q 2931 909 2931 1356 
Q 2931 1769 2642 2001 
Q 2353 2234 1838 2234 
L 1294 2234 
L 1294 2753 
L 1863 2753 
Q 2328 2753 2575 2939 
Q 2822 3125 2822 3475 
Q 2822 3834 2567 4026 
Q 2313 4219 1838 4219 
Q 1578 4219 1281 4162 
Q 984 4106 628 3988 
L 628 4550 
Q 988 4650 1302 4700 
Q 1616 4750 1894 4750 
Q 2613 4750 3031 4423 
Q 3450 4097 3450 3541 
Q 3450 3153 3228 2886 
Q 3006 2619 2597 2516 
z
" transform="scale(0.015625)"/>
       <path id="DejaVuSans-43" d="M 4122 4306 
L 4122 3641 
Q 3803 3938 3442 4084 
Q 3081 4231 2675 4231 
Q 1875 4231 1450 3742 
Q 1025 3253 1025 2328 
Q 1025 1406 1450 917 
Q 1875 428 2675 428 
Q 3081 428 3442 575 
Q 3803 722 4122 1019 
L 4122 359 
Q 3791 134 3420 21 
Q 3050 -91 2638 -91 
Q 1578 -91 968 557 
Q 359 1206 359 2328 
Q 359 3453 968 4101 
Q 1578 4750 2638 4750 
Q 3056 4750 3426 4639 
Q 3797 4528 4122 4306 
z
" transform="scale(0.015625)"/>
       <path id="DejaVuSans-74" d="M 1172 4494 
L 1172 3500 
L 2356 3500 
L 2356 3053 
L 1172 3053 
L 1172 1153 
Q 1172 725 1289 603 
Q 1406 481 1766 481 
L 2356 481 
L 2356 0 
L 1766 0 
Q 1100 0 847 248 
Q 594 497 594 1153 
L 594 3053 
L 172 3053 
L 172 3500 
L 594 3500 
L 594 4494 
L 1172 4494 
z
" transform="scale(0.015625)"/>
       <path id="DejaVuSans-6c" d="M 603 4863 
L 1178 4863 
L 1178 0 
L 603 0 
L 603 4863 
z
" transform="scale(0.015625)"/>
       <path id="DejaVuSans-68" d="M 3513 2113 
L 3513 0 
L 2938 0 
L 2938 2094 
Q 2938 2591 2744 2837 
Q 2550 3084 2163 3084 
Q 1697 3084 1428 2787 
Q 1159 2491 1159 1978 
L 1159 0 
L 581 0 
L 581 4863 
L 1159 4863 
L 1159 2956 
Q 1366 3272 1645 3428 
Q 1925 3584 2291 3584 
Q 2894 3584 3203 3211 
Q 3513 2838 3513 2113 
z
" transform="scale(0.015625)"/>
      </defs>
      <use xlink:href="#DejaVuSans-41"/>
      <use xlink:href="#DejaVuSans-57" x="62.908203"/>
      <use xlink:href="#DejaVuSans-41" x="156.285156"/>
      <use xlink:href="#DejaVuSans-3a" x="222.943359"/>
      <use xlink:href="#DejaVuSans-42" x="256.634766"/>
      <use xlink:href="#DejaVuSans-69" x="325.238281"/>
      <use xlink:href="#DejaVuSans-72" x="353.021484"/>
      <use xlink:href="#DejaVuSans-61" x="394.134766"/>
      <use xlink:href="#DejaVuSans-33" x="455.414062"/>
      <use xlink:href="#DejaVuSans-43" x="519.037109"/>
      <use xlink:href="#DejaVuSans-74" x="588.861328"/>
      <use xlink:href="#DejaVuSans-72" x="628.070312"/>
      <use xlink:href="#DejaVuSans-6c" x="669.183594"/>
      <use xlink:href="#DejaVuSans-3a" x="696.966797"/>
      <use xlink:href="#DejaVuSans-43" x="730.658203"/>
      <use xlink:href="#DejaVuSans-68" x="800.482422"/>
      <use xlink:href="#DejaVuSans-30" x="863.861328"/>
      <use xlink:href="#DejaVuSans-34" x="927.484375"/>
     </g>
    </g>
   </g>
   <g id="matplotlib.axis_2">
    <g id="ytick_1">
     <g id="line2d_6">
      <defs>
       <path id="m68ceaaef31" d="M 0 0 
L -3.5 0 
" style="stroke: #000000; stroke-width: 0.8"/>
      </defs>
      <g>
       <use xlink:href="#m68ceaaef31" x="30.58" y="174.04" style="stroke: #000000; stroke-width: 0.8"/>
      </g>
     </g>
     <g id="text_7">
      <!-- 0 -->
      <g transform="translate(17.2175 177.839219) scale(0.1 -0.1)">
       <use xlink:href="#DejaVuSans-30"/>
      </g>
     </g>
    </g>
    <g id="ytick_2">
     <g id="line2d_7">
      <g>
       <use xlink:href="#m68ceaaef31" x="30.58" y="134.22" style="stroke: #000000; stroke-width: 0.8"/>
      </g>
     </g>
     <g id="text_8">
      <!-- 10 -->
      <g transform="translate(10.855 138.019219) scale(0.1 -0.1)">
       <defs>
        <path id="DejaVuSans-31" d="M 794 531 
L 1825 531 
L 1825 4091 
L 703 3866 
L 703 4441 
L 1819 4666 
L 2450 4666 
L 2450 531 
L 3481 531 
L 3481 0 
L 794 0 
L 794 531 
z
" transform="scale(0.015625)"/>
       </defs>
       <use xlink:href="#DejaVuSans-31"/>
       <use xlink:href="#DejaVuSans-30" x="63.623047"/>
      </g>
     </g>
    </g>
    <g id="ytick_3">
     <g id="line2d_8">
      <g>
       <use xlink:href="#m68ceaaef31" x="30.58" y="94.4" style="stroke: #000000; stroke-width: 0.8"/>
      </g>
     </g>
     <g id="text_9">
      <!-- 20 -->
      <g transform="translate(10.855 98.199219) scale(0.1 -0.1)">
       <use xlink:href="#DejaVuSans-32"/>
       <use xlink:href="#DejaVuSans-30" x="63.623047"/>
      </g>
     </g>
    </g>
    <g id="ytick_4">
     <g id="line2d_9">
      <g>
       <use xlink:href="#m68ceaaef31" x="30.58" y="54.58" style="stroke: #000000; stroke-width: 0.8"/>
      </g>
     </g>
     <g id="text_10">
      <!-- 30 -->
      <g transform="translate(10.855 58.379219) scale(0.1 -0.1)">
       <use xlink:href="#DejaVuSans-33"/>
       <use xlink:href="#DejaVuSans-30" x="63.623047"/>
      </g>
     </g>
    </g>
    <g id="ytick_5">
     <g id="line2d_10">
      <g>
       <use xlink:href="#m68ceaaef31" x="30.58" y="14.76" style="stroke: #000000; stroke-width: 0.8"/>
      </g>
     </g>
     <g id="text_11">
      <!-- 40 -->
      <g transform="translate(10.855 18.559219) scale(0.1 -0.1)">
       <use xlink:href="#DejaVuSans-34"/>
       <use xlink:href="#DejaVuSans-30" x="63.623047"/>
      </g>
     </g>
    </g>
   </g>
   <g id="line2d_11">
    <path d="M 41.7 92.525952 
L 43.94647 95.613407 
L 46.192929 98.64016 
L 48.439398 101.60624 
L 50.685857 104.51162 
L 52.932327 107.356327 
L 55.178786 110.140333 
L 57.425255 112.863666 
L 59.671714 115.526299 
L 61.918184 118.128257 
L 64.164643 120.669517 
L 66.411112 123.150101 
L 68.657577 125.569993 
L 70.904041 127.929198 
L 73.150505 130.227716 
L 75.396969 132.465548 
L 77.643434 134.642692 
L 79.889898 136.75915 
L 82.136362 138.81492 
L 84.382826 140.810004 
L 86.629291 142.744401 
L 88.875755 144.618111 
L 91.122219 146.431135 
L 93.368684 148.183471 
L 95.615153 149.875125 
L 97.861617 151.506087 
L 100.108082 153.076363 
L 102.354546 154.585952 
L 104.60101 156.034854 
L 106.847474 157.423069 
L 109.093939 158.750598 
L 111.340403 160.017439 
L 113.586867 161.223594 
L 115.833332 162.369062 
L 118.079796 163.453843 
L 120.32626 164.477937 
L 122.572724 165.441344 
L 124.819189 166.344064 
L 127.065653 167.186098 
L 129.312117 167.967445 
L 131.558581 168.688105 
L 133.805051 169.348079 
L 136.05151 169.947364 
L 138.29798 170.485964 
L 140.544439 170.963875 
L 142.790908 171.381102 
L 145.037367 171.73764 
L 147.283837 172.033492 
L 149.530306 172.268658 
L 151.776765 172.443135 
L 154.023235 172.556927 
L 156.269694 172.610031 
L 158.516163 172.602448 
L 160.762633 172.534179 
L 163.009092 172.405223 
L 165.255561 172.215579 
L 167.50202 171.965249 
L 169.74849 171.654232 
L 171.994949 171.282529 
L 174.241419 170.850137 
L 176.487883 170.35706 
L 178.734347 169.803295 
L 180.980811 169.188844 
L 183.227276 168.513706 
L 185.47374 167.777881 
L 187.720204 166.981369 
L 189.966668 166.12417 
L 192.213133 165.206285 
L 194.459597 164.227713 
L 196.706061 163.188453 
L 198.952526 162.088507 
L 201.19899 160.927874 
L 203.445454 159.706555 
L 205.691918 158.424548 
L 207.938383 157.081855 
L 210.184847 155.678474 
L 212.431316 154.214403 
L 214.677781 152.689649 
L 216.924245 151.104208 
L 219.170709 149.45808 
L 221.417174 147.751266 
L 223.663638 145.983764 
L 225.910102 144.155576 
L 228.156566 142.266701 
L 230.403031 140.317138 
L 232.649495 138.306889 
L 234.895959 136.235954 
L 237.142423 134.104331 
L 239.388888 131.912022 
L 241.635357 129.65902 
L 243.881816 127.345342 
L 246.128286 124.970966 
L 248.374745 122.535915 
L 250.621214 120.040165 
L 252.867673 117.483741 
L 255.114143 114.866617 
L 257.360602 112.188819 
L 259.607071 109.450321 
L 261.85353 106.65115 
L 264.1 103.791278 
" clip-path="url(#p7b0f8b63bd)" style="fill: none; stroke: #1f77b4; stroke-width: 1.5; stroke-linecap: square"/>
   </g>
   <g id="line2d_12">
    <defs>
     <path id="mc86082effe" d="M 0 1.5 
C 0.397805 1.5 0.77937 1.341951 1.06066 1.06066 
C 1.341951 0.77937 1.5 0.397805 1.5 0 
C 1.5 -0.397805 1.341951 -0.77937 1.06066 -1.06066 
C 0.77937 -1.341951 0.397805 -1.5 0 -1.5 
C -0.397805 -1.5 -0.77937 -1.341951 -1.06066 -1.06066 
C -1.341951 -0.77937 -1.5 -0.397805 -1.5 0 
C -1.5 0.397805 -1.341951 0.77937 -1.06066 1.06066 
C -0.77937 1.341951 -0.397805 1.5 0 1.5 
z
" style="stroke: #1f77b4"/>
    </defs>
    <g clip-path="url(#p7b0f8b63bd)">
     <use xlink:href="#mc86082effe" x="152.9" y="172.883145" style="fill: #1f77b4; stroke: #1f77b4"/>
     <use xlink:href="#mc86082effe" x="155.124" y="173.233645" style="fill: #1f77b4; stroke: #1f77b4"/>
     <use xlink:href="#mc86082effe" x="175.14" y="172.826669" style="fill: #1f77b4; stroke: #1f77b4"/>
     <use xlink:href="#mc86082effe" x="197.38" y="164.074153" style="fill: #1f77b4; stroke: #1f77b4"/>
     <use xlink:href="#mc86082effe" x="228.243404" y="137.842724" style="fill: #1f77b4; stroke: #1f77b4"/>
     <use xlink:href="#mc86082effe" x="248.621182" y="126.203613" style="fill: #1f77b4; stroke: #1f77b4"/>
     <use xlink:href="#mc86082effe" x="139.664976" y="169.766135" style="fill: #1f77b4; stroke: #1f77b4"/>
     <use xlink:href="#mc86082effe" x="212.973398" y="151.046303" style="fill: #1f77b4; stroke: #1f77b4"/>
     <use xlink:href="#mc86082effe" x="132.049466" y="167.475052" style="fill: #1f77b4; stroke: #1f77b4"/>
     <use xlink:href="#mc86082effe" x="239.336805" y="130.17524" style="fill: #1f77b4; stroke: #1f77b4"/>
     <use xlink:href="#mc86082effe" x="186.212406" y="169.282908" style="fill: #1f77b4; stroke: #1f77b4"/>
     <use xlink:href="#mc86082effe" x="165.539793" y="173.936783" style="fill: #1f77b4; stroke: #1f77b4"/>
     <use xlink:href="#mc86082effe" x="128.963755" y="166.500577" style="fill: #1f77b4; stroke: #1f77b4"/>
     <use xlink:href="#mc86082effe" x="220.430492" y="145.05421" style="fill: #1f77b4; stroke: #1f77b4"/>
     <use xlink:href="#mc86082effe" x="203.310229" y="159.558864" style="fill: #1f77b4; stroke: #1f77b4"/>
     <use xlink:href="#mc86082effe" x="146.432386" y="171.648311" style="fill: #1f77b4; stroke: #1f77b4"/>
     <use xlink:href="#mc86082effe" x="233.869279" y="134.453309" style="fill: #1f77b4; stroke: #1f77b4"/>
     <use xlink:href="#mc86082effe" x="191.88801" y="166.953808" style="fill: #1f77b4; stroke: #1f77b4"/>
     <use xlink:href="#mc86082effe" x="244.255826" y="126.286387" style="fill: #1f77b4; stroke: #1f77b4"/>
     <use xlink:href="#mc86082effe" x="252.96352" y="121.569584" style="fill: #1f77b4; stroke: #1f77b4"/>
     <use xlink:href="#mc86082effe" x="180.224576" y="171.78217" style="fill: #1f77b4; stroke: #1f77b4"/>
    </g>
   </g>
   <g id="line2d_13">
    <path d="M 105.18962 -1 
L 106.847474 4.258039 
L 109.093939 11.235188 
L 111.340403 18.064618 
L 113.586867 24.746328 
L 115.833332 31.280319 
L 118.079796 37.66659 
L 120.32626 43.905142 
L 122.572724 49.995974 
L 124.819189 55.939087 
L 127.065653 61.73448 
L 129.312117 67.382154 
L 131.558581 72.882108 
L 133.805051 78.234355 
L 136.05151 83.438858 
L 138.29798 88.495666 
L 140.544439 93.40473 
L 142.790908 98.166098 
L 145.037367 102.779724 
L 147.283837 107.245652 
L 149.530306 111.56386 
L 151.776765 115.734328 
L 154.023235 119.757097 
L 156.269694 123.632127 
L 158.516163 127.359455 
L 160.762633 130.939063 
L 163.009092 134.370936 
L 165.255561 137.655104 
L 167.50202 140.791538 
L 169.74849 143.780267 
L 171.994949 146.621263 
L 174.241419 149.314552 
L 176.487883 151.860115 
L 178.734347 154.257959 
L 180.980811 156.508083 
L 183.227276 158.610487 
L 185.47374 160.565172 
L 187.720204 162.372138 
L 189.966668 164.031384 
L 192.213133 165.542911 
L 194.459597 166.906718 
L 196.706061 168.122806 
L 198.952526 169.191174 
L 201.19899 170.111822 
L 203.445454 170.884751 
L 205.691918 171.509961 
L 207.938383 171.987451 
L 210.184847 172.317222 
L 212.431316 172.499273 
L 214.677781 172.533604 
L 216.924245 172.420216 
L 219.170709 172.159108 
L 221.417174 171.750281 
L 223.663638 171.193734 
L 225.910102 170.489468 
L 228.156566 169.637482 
L 230.403031 168.637777 
L 232.649495 167.490352 
L 234.895959 166.195208 
L 237.142423 164.752344 
L 239.388888 163.161761 
L 241.635357 161.423454 
L 243.881816 159.537436 
L 246.128286 157.503689 
L 248.374745 155.322233 
L 250.621214 152.993046 
L 252.867673 150.516152 
L 255.114143 147.891525 
L 257.360602 145.119192 
L 259.607071 142.199127 
L 261.85353 139.131355 
L 264.1 135.91585 
" clip-path="url(#p7b0f8b63bd)" style="fill: none; stroke: #2ca02c; stroke-width: 1.5; stroke-linecap: square"/>
   </g>
   <g id="line2d_14">
    <defs>
     <path id="m256026e161" d="M 0 1.5 
C 0.397805 1.5 0.77937 1.341951 1.06066 1.06066 
C 1.341951 0.77937 1.5 0.397805 1.5 0 
C 1.5 -0.397805 1.341951 -0.77937 1.06066 -1.06066 
C 0.77937 -1.341951 0.397805 -1.5 0 -1.5 
C -0.397805 -1.5 -0.77937 -1.341951 -1.06066 -1.06066 
C -1.341951 -0.77937 -1.5 -0.397805 -1.5 0 
C -1.5 0.397805 -1.341951 0.77937 -1.06066 1.06066 
C -0.77937 1.341951 -0.397805 1.5 0 1.5 
z
" style="stroke: #2ca02c"/>
    </defs>
    <g clip-path="url(#p7b0f8b63bd)">
     <use xlink:href="#m256026e161" x="152.9" y="114.63699" style="fill: #2ca02c; stroke: #2ca02c"/>
     <use xlink:href="#m256026e161" x="155.124" y="116.409319" style="fill: #2ca02c; stroke: #2ca02c"/>
     <use xlink:href="#m256026e161" x="175.14" y="150.704863" style="fill: #2ca02c; stroke: #2ca02c"/>
     <use xlink:href="#m256026e161" x="197.38" y="171.048889" style="fill: #2ca02c; stroke: #2ca02c"/>
     <use xlink:href="#m256026e161" x="228.243404" y="168.540867" style="fill: #2ca02c; stroke: #2ca02c"/>
     <use xlink:href="#m256026e161" x="248.621182" y="155.524647" style="fill: #2ca02c; stroke: #2ca02c"/>
     <use xlink:href="#m256026e161" x="139.664976" y="88.634208" style="fill: #2ca02c; stroke: #2ca02c"/>
     <use xlink:href="#m256026e161" x="212.973398" y="173.778023" style="fill: #2ca02c; stroke: #2ca02c"/>
     <use xlink:href="#m256026e161" x="132.049466" y="76.995175" style="fill: #2ca02c; stroke: #2ca02c"/>
     <use xlink:href="#m256026e161" x="239.336805" y="161.752329" style="fill: #2ca02c; stroke: #2ca02c"/>
     <use xlink:href="#m256026e161" x="186.212406" y="162.977863" style="fill: #2ca02c; stroke: #2ca02c"/>
     <use xlink:href="#m256026e161" x="165.539793" y="129.947339" style="fill: #2ca02c; stroke: #2ca02c"/>
     <use xlink:href="#m256026e161" x="128.963755" y="69.402422" style="fill: #2ca02c; stroke: #2ca02c"/>
     <use xlink:href="#m256026e161" x="220.430492" y="172.127048" style="fill: #2ca02c; stroke: #2ca02c"/>
     <use xlink:href="#m256026e161" x="203.310229" y="173.154126" style="fill: #2ca02c; stroke: #2ca02c"/>
     <use xlink:href="#m256026e161" x="146.432386" y="109.068783" style="fill: #2ca02c; stroke: #2ca02c"/>
     <use xlink:href="#m256026e161" x="233.869279" y="165.454491" style="fill: #2ca02c; stroke: #2ca02c"/>
     <use xlink:href="#m256026e161" x="191.88801" y="168.204827" style="fill: #2ca02c; stroke: #2ca02c"/>
     <use xlink:href="#m256026e161" x="244.255826" y="157.497898" style="fill: #2ca02c; stroke: #2ca02c"/>
     <use xlink:href="#m256026e161" x="252.96352" y="151.221974" style="fill: #2ca02c; stroke: #2ca02c"/>
     <use xlink:href="#m256026e161" x="180.224576" y="158.762097" style="fill: #2ca02c; stroke: #2ca02c"/>
    </g>
   </g>
   <g id="patch_3">
    <path d="M 30.58 174.04 
L 30.58 14.76 
" style="fill: none; stroke: #000000; stroke-width: 0.8; stroke-linejoin: miter; stroke-linecap: square"/>
   </g>
   <g id="patch_4">
    <path d="M 275.22 174.04 
L 275.22 14.76 
" style="fill: none; stroke: #000000; stroke-width: 0.8; stroke-linejoin: miter; stroke-linecap: square"/>
   </g>
   <g id="patch_5">
    <path d="M 30.58 174.04 
L 275.22 174.04 
" style="fill: none; stroke: #000000; stroke-width: 0.8; stroke-linejoin: miter; stroke-linecap: square"/>
   </g>
   <g id="patch_6">
    <path d="M 30.58 14.76 
L 275.22 14.76 
" style="fill: none; stroke: #000000; stroke-width: 0.8; stroke-linejoin: miter; stroke-linecap: square"/>
   </g>
   <g id="legend_1">
    <g id="patch_7">
     <path d="M 188.92 57.96 
L 268.22 57.96 
Q 270.22 57.96 270.22 55.96 
L 270.22 21.76 
Q 270.22 19.76 268.22 19.76 
L 188.92 19.76 
Q 186.92 19.76 186.92 21.76 
L 186.92 55.96 
Q 186.92 57.96 188.92 57.96 
z
" style="fill: #ffffff; opacity: 0.8; stroke: #cccccc; stroke-linejoin: miter"/>
    </g>
    <g id="line2d_15">
     <path d="M 190.92 29.36 
L 200.92 29.36 
L 210.92 29.36 
" style="fill: none; stroke: #1f77b4; stroke-width: 1.5; stroke-linecap: square"/>
    </g>
    <g id="text_12">
     <!-- $\sigma_x^2~(mm^2)$ -->
     <g transform="translate(218.92 32.86) scale(0.1 -0.1)">
      <defs>
       <path id="DejaVuSans-Oblique-3c3" d="M 2219 3044 
Q 1744 3044 1422 2700 
Q 1081 2341 969 1747 
Q 844 1119 1044 756 
Q 1241 397 1706 397 
Q 2166 397 2503 759 
Q 2844 1122 2966 1747 
Q 3075 2319 2881 2700 
Q 2700 3044 2219 3044 
z
M 2309 3503 
L 4219 3500 
L 4106 2925 
L 3463 2925 
Q 3706 2438 3575 1747 
Q 3406 888 2884 400 
Q 2359 -91 1609 -91 
Q 856 -91 525 400 
Q 194 888 363 1747 
Q 528 2609 1050 3097 
Q 1484 3503 2309 3503 
z
" transform="scale(0.015625)"/>
       <path id="DejaVuSans-Oblique-78" d="M 3841 3500 
L 2234 1784 
L 3219 0 
L 2559 0 
L 1819 1388 
L 531 0 
L -166 0 
L 1556 1844 
L 641 3500 
L 1300 3500 
L 1972 2234 
L 3144 3500 
L 3841 3500 
z
" transform="scale(0.015625)"/>
       <path id="DejaVuSans-28" d="M 1984 4856 
Q 1566 4138 1362 3434 
Q 1159 2731 1159 2009 
Q 1159 1288 1364 580 
Q 1569 -128 1984 -844 
L 1484 -844 
Q 1016 -109 783 600 
Q 550 1309 550 2009 
Q 550 2706 781 3412 
Q 1013 4119 1484 4856 
L 1984 4856 
z
" transform="scale(0.015625)"/>
       <path id="DejaVuSans-Oblique-6d" d="M 5747 2113 
L 5338 0 
L 4763 0 
L 5166 2094 
Q 5191 2228 5203 2325 
Q 5216 2422 5216 2491 
Q 5216 2772 5059 2928 
Q 4903 3084 4622 3084 
Q 4203 3084 3875 2770 
Q 3547 2456 3450 1953 
L 3066 0 
L 2491 0 
L 2900 2094 
Q 2925 2209 2937 2307 
Q 2950 2406 2950 2484 
Q 2950 2769 2794 2926 
Q 2638 3084 2363 3084 
Q 1938 3084 1609 2770 
Q 1281 2456 1184 1953 
L 800 0 
L 225 0 
L 909 3500 
L 1484 3500 
L 1375 2956 
Q 1609 3263 1923 3423 
Q 2238 3584 2597 3584 
Q 2978 3584 3223 3384 
Q 3469 3184 3519 2828 
Q 3781 3197 4126 3390 
Q 4472 3584 4856 3584 
Q 5306 3584 5551 3325 
Q 5797 3066 5797 2591 
Q 5797 2488 5784 2364 
Q 5772 2241 5747 2113 
z
" transform="scale(0.015625)"/>
       <path id="DejaVuSans-29" d="M 513 4856 
L 1013 4856 
Q 1481 4119 1714 3412 
Q 1947 2706 1947 2009 
Q 1947 1309 1714 600 
Q 1481 -109 1013 -844 
L 513 -844 
Q 928 -128 1133 580 
Q 1338 1288 1338 2009 
Q 1338 2731 1133 3434 
Q 928 4138 513 4856 
z
" transform="scale(0.015625)"/>
      </defs>
      <use xlink:href="#DejaVuSans-Oblique-3c3" transform="translate(0 0.765625)"/>
      <use xlink:href="#DejaVuSans-32" transform="translate(67.851615 39.046875) scale(0.7)"/>
      <use xlink:href="#DejaVuSans-Oblique-78" transform="translate(63.378906 -26.578125) scale(0.7)"/>
      <use xlink:href="#DejaVuSans-28" transform="translate(147.592501 0.765625)"/>
      <use xlink:href="#DejaVuSans-Oblique-6d" transform="translate(186.606173 0.765625)"/>
      <use xlink:href="#DejaVuSans-Oblique-6d" transform="translate(284.018282 0.765625)"/>
      <use xlink:href="#DejaVuSans-32" transform="translate(386.080287 39.046875) scale(0.7)"/>
      <use xlink:href="#DejaVuSans-29" transform="translate(433.350795 0.765625)"/>
     </g>
    </g>
    <g id="line2d_16">
     <path d="M 190.92 46.26 
L 200.92 46.26 
L 210.92 46.26 
" style="fill: none; stroke: #2ca02c; stroke-width: 1.5; stroke-linecap: square"/>
    </g>
    <g id="text_13">
     <!-- $\sigma_y^2~(mm^2)$ -->
     <g transform="translate(218.92 49.76) scale(0.1 -0.1)">
      <defs>
       <path id="DejaVuSans-Oblique-79" d="M 1588 -325 
Q 1188 -997 936 -1164 
Q 684 -1331 294 -1331 
L -159 -1331 
L -63 -850 
L 269 -850 
Q 509 -850 678 -719 
Q 847 -588 1056 -206 
L 1234 128 
L 459 3500 
L 1069 3500 
L 1650 819 
L 3256 3500 
L 3859 3500 
L 1588 -325 
z
" transform="scale(0.015625)"/>
      </defs>
      <use xlink:href="#DejaVuSans-Oblique-3c3" transform="translate(0 0.765625)"/>
      <use xlink:href="#DejaVuSans-32" transform="translate(67.851615 39.046875) scale(0.7)"/>
      <use xlink:href="#DejaVuSans-Oblique-79" transform="translate(63.378906 -26.578125) scale(0.7)"/>
      <use xlink:href="#DejaVuSans-28" transform="translate(147.592501 0.765625)"/>
      <use xlink:href="#DejaVuSans-Oblique-6d" transform="translate(186.606173 0.765625)"/>
      <use xlink:href="#DejaVuSans-Oblique-6d" transform="translate(284.018282 0.765625)"/>
      <use xlink:href="#DejaVuSans-32" transform="translate(386.080287 39.046875) scale(0.7)"/>
      <use xlink:href="#DejaVuSans-29" transform="translate(433.350795 0.765625)"/>
     </g>
    </g>
   </g>
  </g>
  <g id="axes_2">
   <g id="patch_8">
    <path d="M 320.56 174.04 
L 565.2 174.04 
L 565.2 14.76 
L 320.56 14.76 
z
" style="fill: #ffffff"/>
   </g>
   <g id="PolyCollection_3">
    <path d="M 331.68 22.660174 
L 331.68 33.025702 
L 333.92647 35.226325 
L 336.172929 38.676663 
L 338.419398 42.682769 
L 340.665857 46.922618 
L 342.912327 51.258754 
L 345.158786 55.621566 
L 347.405255 59.968581 
L 349.651714 64.269642 
L 351.898184 68.501239 
L 354.144643 72.64378 
L 356.391112 76.680531 
L 358.637577 80.596844 
L 360.884041 84.379948 
L 363.130505 88.018717 
L 365.376969 91.503599 
L 367.623434 94.826564 
L 369.869898 97.981097 
L 372.116362 100.962204 
L 374.362826 103.766427 
L 376.609291 106.391877 
L 378.855755 108.838267 
L 381.102219 111.106955 
L 383.348684 113.200995 
L 385.595153 115.125187 
L 387.841617 116.886122 
L 390.088082 118.492265 
L 392.334546 119.954009 
L 394.58101 121.283748 
L 396.827474 122.49597 
L 399.073939 123.607367 
L 401.320403 124.63699 
L 403.566867 125.606486 
L 405.813332 126.540497 
L 408.059796 127.46735 
L 410.30626 128.42028 
L 412.552724 129.439476 
L 414.799189 130.574663 
L 417.045653 131.884549 
L 419.292117 133.419764 
L 421.538581 135.178335 
L 423.785051 137.080058 
L 426.03151 139.017467 
L 428.27798 140.918272 
L 430.524439 142.756091 
L 432.770908 144.534228 
L 435.017367 146.270749 
L 437.263837 147.990122 
L 439.510306 149.716163 
L 441.756765 151.465816 
L 444.003235 153.243768 
L 446.249694 155.037199 
L 448.496163 156.815893 
L 450.742633 158.539956 
L 452.989092 160.169102 
L 455.235561 161.667688 
L 457.48202 163.005434 
L 459.72849 164.15695 
L 461.974949 165.103751 
L 464.221419 165.836846 
L 466.467883 166.357077 
L 468.714347 166.673301 
L 470.960811 166.8 
L 473.207276 166.75512 
L 475.45374 166.558757 
L 477.700204 166.232404 
L 479.946668 165.796961 
L 482.193133 165.271668 
L 484.439597 164.672821 
L 486.686061 164.011752 
L 488.932526 163.294224 
L 491.17899 162.519776 
L 493.425454 161.683029 
L 495.671918 160.776042 
L 497.918383 159.790663 
L 500.164847 158.722051 
L 502.411316 157.570713 
L 504.657781 156.341699 
L 506.904245 155.042237 
L 509.150709 153.68096 
L 511.397174 152.267738 
L 513.643638 150.812599 
L 515.890102 149.325758 
L 518.136566 147.818751 
L 520.383031 146.303752 
L 522.629495 144.791837 
L 524.875959 143.292915 
L 527.122423 141.815548 
L 529.368888 140.36721 
L 531.615357 138.954701 
L 533.861816 137.583155 
L 536.108286 136.25525 
L 538.354745 134.970388 
L 540.601214 133.725869 
L 542.847673 132.520845 
L 545.094143 131.363316 
L 547.340602 130.278296 
L 549.587071 129.313277 
L 551.83353 128.532247 
L 554.08 127.995484 
L 554.08 118.527496 
L 554.08 118.527496 
L 551.83353 120.465133 
L 549.587071 122.203337 
L 547.340602 123.79806 
L 545.094143 125.309006 
L 542.847673 126.779919 
L 540.601214 128.232902 
L 538.354745 129.674334 
L 536.108286 131.10318 
L 533.861816 132.518038 
L 531.615357 133.920365 
L 529.368888 135.314816 
L 527.122423 136.707087 
L 524.875959 138.10203 
L 522.629495 139.501868 
L 520.383031 140.906083 
L 518.136566 142.311623 
L 515.890102 143.713133 
L 513.643638 145.103607 
L 511.397174 146.474056 
L 509.150709 147.814474 
L 506.904245 149.11654 
L 504.657781 150.374696 
L 502.411316 151.585628 
L 500.164847 152.748636 
L 497.918383 153.864785 
L 495.671918 154.933624 
L 493.425454 155.951203 
L 491.17899 156.910982 
L 488.932526 157.805955 
L 486.686061 158.628808 
L 484.439597 159.37176 
L 482.193133 160.025978 
L 479.946668 160.57993 
L 477.700204 161.018435 
L 475.45374 161.321913 
L 473.207276 161.467332 
L 470.960811 161.430985 
L 468.714347 161.192515 
L 466.467883 160.740311 
L 464.221419 160.074513 
L 461.974949 159.207548 
L 459.72849 158.161497 
L 457.48202 156.962484 
L 455.235561 155.636891 
L 452.989092 154.209795 
L 450.742633 152.703436 
L 448.496163 151.133736 
L 446.249694 149.508414 
L 444.003235 147.829271 
L 441.756765 146.098779 
L 439.510306 144.326258 
L 437.263837 142.528042 
L 435.017367 140.723555 
L 432.770908 138.931114 
L 430.524439 137.162737 
L 428.27798 135.41813 
L 426.03151 133.677267 
L 423.785051 131.887766 
L 421.538581 129.951627 
L 419.292117 127.739195 
L 417.045653 125.153385 
L 414.799189 122.180418 
L 412.552724 118.86324 
L 410.30626 115.256331 
L 408.059796 111.408233 
L 405.813332 107.360634 
L 403.566867 103.150639 
L 401.320403 98.812529 
L 399.073939 94.378735 
L 396.827474 89.880306 
L 394.58101 85.347112 
L 392.334546 80.807907 
L 390.088082 76.290332 
L 387.841617 71.820891 
L 385.595153 67.424922 
L 383.348684 63.126553 
L 381.102219 58.948715 
L 378.855755 54.913061 
L 376.609291 51.039983 
L 374.362826 47.348582 
L 372.116362 43.85665 
L 369.869898 40.58065 
L 367.623434 37.535683 
L 365.376969 34.735454 
L 363.130505 32.192224 
L 360.884041 29.916741 
L 358.637577 27.918151 
L 356.391112 26.203865 
L 354.144643 24.779369 
L 351.898184 23.647957 
L 349.651714 22.810245 
L 347.405255 22.263457 
L 345.158786 22 
L 342.912327 22.004746 
L 340.665857 22.248972 
L 338.419398 22.675475 
L 336.172929 23.157438 
L 333.92647 23.381548 
L 331.68 22.660174 
z
" clip-path="url(#pde0d36ca4a)" style="fill: #ff7f0e; fill-opacity: 0.25"/>
   </g>
   <g id="matplotlib.axis_3">
    <g id="xtick_6">
     <g id="line2d_17">
      <g>
       <use xlink:href="#m38a79db935" x="353.92" y="174.04" style="stroke: #000000; stroke-width: 0.8"/>
      </g>
     </g>
     <g id="text_14">
      <!-- −4 -->
      <g transform="translate(346.548906 188.638438) scale(0.1 -0.1)">
       <use xlink:href="#DejaVuSans-2212"/>
       <use xlink:href="#DejaVuSans-34" x="83.789062"/>
      </g>
     </g>
    </g>
    <g id="xtick_7">
     <g id="line2d_18">
      <g>
       <use xlink:href="#m38a79db935" x="398.4" y="174.04" style="stroke: #000000; stroke-width: 0.8"/>
      </g>
     </g>
     <g id="text_15">
      <!-- −2 -->
      <g transform="translate(391.028906 188.638438) scale(0.1 -0.1)">
       <use xlink:href="#DejaVuSans-2212"/>
       <use xlink:href="#DejaVuSans-32" x="83.789062"/>
      </g>
     </g>
    </g>
    <g id="xtick_8">
     <g id="line2d_19">
      <g>
       <use xlink:href="#m38a79db935" x="442.88" y="174.04" style="stroke: #000000; stroke-width: 0.8"/>
      </g>
     </g>
     <g id="text_16">
      <!-- 0 -->
      <g transform="translate(439.69875 188.638438) scale(0.1 -0.1)">
       <use xlink:href="#DejaVuSans-30"/>
      </g>
     </g>
    </g>
    <g id="xtick_9">
     <g id="line2d_20">
      <g>
       <use xlink:href="#m38a79db935" x="487.36" y="174.04" style="stroke: #000000; stroke-width: 0.8"/>
      </g>
     </g>
     <g id="text_17">
      <!-- 2 -->
      <g transform="translate(484.17875 188.638438) scale(0.1 -0.1)">
       <use xlink:href="#DejaVuSans-32"/>
      </g>
     </g>
    </g>
    <g id="xtick_10">
     <g id="line2d_21">
      <g>
       <use xlink:href="#m38a79db935" x="531.84" y="174.04" style="stroke: #000000; stroke-width: 0.8"/>
      </g>
     </g>
     <g id="text_18">
      <!-- 4 -->
      <g transform="translate(528.65875 188.638438) scale(0.1 -0.1)">
       <use xlink:href="#DejaVuSans-34"/>
      </g>
     </g>
    </g>
    <g id="text_19">
     <!-- AWA:Bira3Ctrl:Ch04 -->
     <g transform="translate(393.325312 202.316563) scale(0.1 -0.1)">
      <use xlink:href="#DejaVuSans-41"/>
      <use xlink:href="#DejaVuSans-57" x="62.908203"/>
      <use xlink:href="#DejaVuSans-41" x="156.285156"/>
      <use xlink:href="#DejaVuSans-3a" x="222.943359"/>
      <use xlink:href="#DejaVuSans-42" x="256.634766"/>
      <use xlink:href="#DejaVuSans-69" x="325.238281"/>
      <use xlink:href="#DejaVuSans-72" x="353.021484"/>
      <use xlink:href="#DejaVuSans-61" x="394.134766"/>
      <use xlink:href="#DejaVuSans-33" x="455.414062"/>
      <use xlink:href="#DejaVuSans-43" x="519.037109"/>
      <use xlink:href="#DejaVuSans-74" x="588.861328"/>
      <use xlink:href="#DejaVuSans-72" x="628.070312"/>
      <use xlink:href="#DejaVuSans-6c" x="669.183594"/>
      <use xlink:href="#DejaVuSans-3a" x="696.966797"/>
      <use xlink:href="#DejaVuSans-43" x="730.658203"/>
      <use xlink:href="#DejaVuSans-68" x="800.482422"/>
      <use xlink:href="#DejaVuSans-30" x="863.861328"/>
      <use xlink:href="#DejaVuSans-34" x="927.484375"/>
     </g>
    </g>
   </g>
   <g id="matplotlib.axis_4">
    <g id="ytick_6">
     <g id="line2d_22">
      <g>
       <use xlink:href="#m68ceaaef31" x="320.56" y="155.09613" style="stroke: #000000; stroke-width: 0.8"/>
      </g>
     </g>
     <g id="text_20">
      <!-- −250 -->
      <g transform="translate(286.092813 158.895348) scale(0.1 -0.1)">
       <defs>
        <path id="DejaVuSans-35" d="M 691 4666 
L 3169 4666 
L 3169 4134 
L 1269 4134 
L 1269 2991 
Q 1406 3038 1543 3061 
Q 1681 3084 1819 3084 
Q 2600 3084 3056 2656 
Q 3513 2228 3513 1497 
Q 3513 744 3044 326 
Q 2575 -91 1722 -91 
Q 1428 -91 1123 -41 
Q 819 9 494 109 
L 494 744 
Q 775 591 1075 516 
Q 1375 441 1709 441 
Q 2250 441 2565 725 
Q 2881 1009 2881 1497 
Q 2881 1984 2565 2268 
Q 2250 2553 1709 2553 
Q 1456 2553 1204 2497 
Q 953 2441 691 2322 
L 691 4666 
z
" transform="scale(0.015625)"/>
       </defs>
       <use xlink:href="#DejaVuSans-2212"/>
       <use xlink:href="#DejaVuSans-32" x="83.789062"/>
       <use xlink:href="#DejaVuSans-35" x="147.412109"/>
       <use xlink:href="#DejaVuSans-30" x="211.035156"/>
      </g>
     </g>
    </g>
    <g id="ytick_7">
     <g id="line2d_23">
      <g>
       <use xlink:href="#m68ceaaef31" x="320.56" y="129.597014" style="stroke: #000000; stroke-width: 0.8"/>
      </g>
     </g>
     <g id="text_21">
      <!-- 0 -->
      <g transform="translate(307.1975 133.396233) scale(0.1 -0.1)">
       <use xlink:href="#DejaVuSans-30"/>
      </g>
     </g>
    </g>
    <g id="ytick_8">
     <g id="line2d_24">
      <g>
       <use xlink:href="#m68ceaaef31" x="320.56" y="104.097899" style="stroke: #000000; stroke-width: 0.8"/>
      </g>
     </g>
     <g id="text_22">
      <!-- 250 -->
      <g transform="translate(294.4725 107.897118) scale(0.1 -0.1)">
       <use xlink:href="#DejaVuSans-32"/>
       <use xlink:href="#DejaVuSans-35" x="63.623047"/>
       <use xlink:href="#DejaVuSans-30" x="127.246094"/>
      </g>
     </g>
    </g>
    <g id="ytick_9">
     <g id="line2d_25">
      <g>
       <use xlink:href="#m68ceaaef31" x="320.56" y="78.598784" style="stroke: #000000; stroke-width: 0.8"/>
      </g>
     </g>
     <g id="text_23">
      <!-- 500 -->
      <g transform="translate(294.4725 82.398003) scale(0.1 -0.1)">
       <use xlink:href="#DejaVuSans-35"/>
       <use xlink:href="#DejaVuSans-30" x="63.623047"/>
       <use xlink:href="#DejaVuSans-30" x="127.246094"/>
      </g>
     </g>
    </g>
    <g id="ytick_10">
     <g id="line2d_26">
      <g>
       <use xlink:href="#m68ceaaef31" x="320.56" y="53.099669" style="stroke: #000000; stroke-width: 0.8"/>
      </g>
     </g>
     <g id="text_24">
      <!-- 750 -->
      <g transform="translate(294.4725 56.898887) scale(0.1 -0.1)">
       <defs>
        <path id="DejaVuSans-37" d="M 525 4666 
L 3525 4666 
L 3525 4397 
L 1831 0 
L 1172 0 
L 2766 4134 
L 525 4134 
L 525 4666 
z
" transform="scale(0.015625)"/>
       </defs>
       <use xlink:href="#DejaVuSans-37"/>
       <use xlink:href="#DejaVuSans-35" x="63.623047"/>
       <use xlink:href="#DejaVuSans-30" x="127.246094"/>
      </g>
     </g>
    </g>
    <g id="ytick_11">
     <g id="line2d_27">
      <g>
       <use xlink:href="#m68ceaaef31" x="320.56" y="27.600553" style="stroke: #000000; stroke-width: 0.8"/>
      </g>
     </g>
     <g id="text_25">
      <!-- 1000 -->
      <g transform="translate(288.11 31.399772) scale(0.1 -0.1)">
       <use xlink:href="#DejaVuSans-31"/>
       <use xlink:href="#DejaVuSans-30" x="63.623047"/>
       <use xlink:href="#DejaVuSans-30" x="127.246094"/>
       <use xlink:href="#DejaVuSans-30" x="190.869141"/>
      </g>
     </g>
    </g>
   </g>
   <g id="line2d_28">
    <path d="M 331.68 27.842938 
L 333.92647 29.303937 
L 336.172929 30.91705 
L 338.419398 32.679122 
L 340.665857 34.585795 
L 342.912327 36.63175 
L 345.158786 38.810783 
L 347.405255 41.116019 
L 349.651714 43.539944 
L 351.898184 46.074598 
L 354.144643 48.711575 
L 356.391112 51.442198 
L 358.637577 54.257498 
L 360.884041 57.148344 
L 363.130505 60.105471 
L 365.376969 63.119526 
L 367.623434 66.181123 
L 369.869898 69.280874 
L 372.116362 72.409427 
L 374.362826 75.557505 
L 376.609291 78.71593 
L 378.855755 81.875664 
L 381.102219 85.027835 
L 383.348684 88.163774 
L 385.595153 91.275055 
L 387.841617 94.353507 
L 390.088082 97.391299 
L 392.334546 100.380958 
L 394.58101 103.31543 
L 396.827474 106.188138 
L 399.073939 108.993051 
L 401.320403 111.72476 
L 403.566867 114.378563 
L 405.813332 116.950566 
L 408.059796 119.437791 
L 410.30626 121.838306 
L 412.552724 124.151358 
L 414.799189 126.377541 
L 417.045653 128.518967 
L 419.292117 130.579479 
L 421.538581 132.564981 
L 423.785051 134.483912 
L 426.03151 136.347367 
L 428.27798 138.168201 
L 430.524439 139.959414 
L 432.770908 141.732671 
L 435.017367 143.497152 
L 437.263837 145.259082 
L 439.510306 147.021211 
L 441.756765 148.782298 
L 444.003235 150.536519 
L 446.249694 152.272806 
L 448.496163 153.974814 
L 450.742633 155.621696 
L 452.989092 157.189448 
L 455.235561 158.65229 
L 457.48202 159.983959 
L 459.72849 161.159223 
L 461.974949 162.15565 
L 464.221419 162.95568 
L 466.467883 163.548694 
L 468.714347 163.932908 
L 470.960811 164.115492 
L 473.207276 164.111226 
L 475.45374 163.940335 
L 477.700204 163.62542 
L 479.946668 163.188445 
L 482.193133 162.648823 
L 484.439597 162.02229 
L 486.686061 161.32028 
L 488.932526 160.55009 
L 491.17899 159.715379 
L 493.425454 158.817116 
L 495.671918 157.854833 
L 497.918383 156.827724 
L 500.164847 155.735343 
L 502.411316 154.578171 
L 504.657781 153.358197 
L 506.904245 152.079389 
L 509.150709 150.747717 
L 511.397174 149.370897 
L 513.643638 147.958103 
L 515.890102 146.519446 
L 518.136566 145.065187 
L 520.383031 143.604917 
L 522.629495 142.146852 
L 524.875959 140.697472 
L 527.122423 139.261317 
L 529.368888 137.841013 
L 531.615357 136.437533 
L 533.861816 135.050597 
L 536.108286 133.679215 
L 538.354745 132.322361 
L 540.601214 130.979386 
L 542.847673 129.650382 
L 545.094143 128.336161 
L 547.340602 127.038178 
L 549.587071 125.758307 
L 551.83353 124.49869 
L 554.08 123.26149 
" clip-path="url(#pde0d36ca4a)" style="fill: none; stroke: #ff7f0e; stroke-width: 1.5; stroke-linecap: square"/>
   </g>
   <g id="line2d_29">
    <defs>
     <path id="m6e7ea9e72e" d="M 0 1.5 
C 0.397805 1.5 0.77937 1.341951 1.06066 1.06066 
C 1.341951 0.77937 1.5 0.397805 1.5 0 
C 1.5 -0.397805 1.341951 -0.77937 1.06066 -1.06066 
C 0.77937 -1.341951 0.397805 -1.5 0 -1.5 
C -0.397805 -1.5 -0.77937 -1.341951 -1.06066 -1.06066 
C -1.341951 -0.77937 -1.5 -0.397805 -1.5 0 
C -1.5 0.397805 -1.341951 0.77937 -1.06066 1.06066 
C -0.77937 1.341951 -0.397805 1.5 0 1.5 
z
" style="stroke: #ff7f0e"/>
    </defs>
    <g clip-path="url(#pde0d36ca4a)">
     <use xlink:href="#m6e7ea9e72e" x="442.88" y="149.07098" style="fill: #ff7f0e; stroke: #ff7f0e"/>
     <use xlink:href="#m6e7ea9e72e" x="445.104" y="150.829666" style="fill: #ff7f0e; stroke: #ff7f0e"/>
     <use xlink:href="#m6e7ea9e72e" x="465.12" y="165.224498" style="fill: #ff7f0e; stroke: #ff7f0e"/>
     <use xlink:href="#m6e7ea9e72e" x="487.36" y="160.598571" style="fill: #ff7f0e; stroke: #ff7f0e"/>
     <use xlink:href="#m6e7ea9e72e" x="331.68" y="27.600553" style="fill: #ff7f0e; stroke: #ff7f0e"/>
     <use xlink:href="#m6e7ea9e72e" x="554.08" y="123.140671" style="fill: #ff7f0e; stroke: #ff7f0e"/>
     <use xlink:href="#m6e7ea9e72e" x="518.223404" y="144.67953" style="fill: #ff7f0e; stroke: #ff7f0e"/>
     <use xlink:href="#m6e7ea9e72e" x="538.601182" y="132.445326" style="fill: #ff7f0e; stroke: #ff7f0e"/>
     <use xlink:href="#m6e7ea9e72e" x="429.644976" y="138.638148" style="fill: #ff7f0e; stroke: #ff7f0e"/>
     <use xlink:href="#m6e7ea9e72e" x="502.953398" y="154.775002" style="fill: #ff7f0e; stroke: #ff7f0e"/>
     <use xlink:href="#m6e7ea9e72e" x="422.029466" y="134.047675" style="fill: #ff7f0e; stroke: #ff7f0e"/>
     <use xlink:href="#m6e7ea9e72e" x="529.316805" y="137.668965" style="fill: #ff7f0e; stroke: #ff7f0e"/>
     <use xlink:href="#m6e7ea9e72e" x="416.603462" y="127.92134" style="fill: #ff7f0e; stroke: #ff7f0e"/>
     <use xlink:href="#m6e7ea9e72e" x="476.192406" y="162.715298" style="fill: #ff7f0e; stroke: #ff7f0e"/>
     <use xlink:href="#m6e7ea9e72e" x="455.519793" y="158.498725" style="fill: #ff7f0e; stroke: #ff7f0e"/>
     <use xlink:href="#m6e7ea9e72e" x="418.943755" y="130.39809" style="fill: #ff7f0e; stroke: #ff7f0e"/>
     <use xlink:href="#m6e7ea9e72e" x="510.410492" y="150.298458" style="fill: #ff7f0e; stroke: #ff7f0e"/>
     <use xlink:href="#m6e7ea9e72e" x="493.290229" y="159.25299" style="fill: #ff7f0e; stroke: #ff7f0e"/>
     <use xlink:href="#m6e7ea9e72e" x="436.412386" y="144.638891" style="fill: #ff7f0e; stroke: #ff7f0e"/>
     <use xlink:href="#m6e7ea9e72e" x="523.849279" y="141.063363" style="fill: #ff7f0e; stroke: #ff7f0e"/>
     <use xlink:href="#m6e7ea9e72e" x="481.86801" y="161.917318" style="fill: #ff7f0e; stroke: #ff7f0e"/>
     <use xlink:href="#m6e7ea9e72e" x="534.235826" y="134.96344" style="fill: #ff7f0e; stroke: #ff7f0e"/>
     <use xlink:href="#m6e7ea9e72e" x="542.94352" y="129.64958" style="fill: #ff7f0e; stroke: #ff7f0e"/>
     <use xlink:href="#m6e7ea9e72e" x="470.204576" y="165.10591" style="fill: #ff7f0e; stroke: #ff7f0e"/>
    </g>
   </g>
   <g id="line2d_30">
    <path d="M 320.56 129.597014 
L 565.2 129.597014 
" clip-path="url(#pde0d36ca4a)" style="fill: none; stroke-dasharray: 5.55,2.4; stroke-dashoffset: 0; stroke: #1f77b4; stroke-width: 1.5"/>
   </g>
   <g id="patch_9">
    <path d="M 320.56 174.04 
L 320.56 14.76 
" style="fill: none; stroke: #000000; stroke-width: 0.8; stroke-linejoin: miter; stroke-linecap: square"/>
   </g>
   <g id="patch_10">
    <path d="M 565.2 174.04 
L 565.2 14.76 
" style="fill: none; stroke: #000000; stroke-width: 0.8; stroke-linejoin: miter; stroke-linecap: square"/>
   </g>
   <g id="patch_11">
    <path d="M 320.56 174.04 
L 565.2 174.04 
" style="fill: none; stroke: #000000; stroke-width: 0.8; stroke-linejoin: miter; stroke-linecap: square"/>
   </g>
   <g id="patch_12">
    <path d="M 320.56 14.76 
L 565.2 14.76 
" style="fill: none; stroke: #000000; stroke-width: 0.8; stroke-linejoin: miter; stroke-linecap: square"/>
   </g>
   <g id="legend_2">
    <g id="patch_13">
     <path d="M 488.615625 37.438125 
L 558.2 37.438125 
Q 560.2 37.438125 560.2 35.438125 
L 560.2 21.76 
Q 560.2 19.76 558.2 19.76 
L 488.615625 19.76 
Q 486.615625 19.76 486.615625 21.76 
L 486.615625 35.438125 
Q 486.615625 37.438125 488.615625 37.438125 
z
" style="fill: #ffffff; opacity: 0.8; stroke: #cccccc; stroke-linejoin: miter"/>
    </g>
    <g id="line2d_31">
     <path d="M 490.615625 27.858438 
L 500.615625 27.858438 
L 510.615625 27.858438 
" style="fill: none; stroke: #ff7f0e; stroke-width: 1.5; stroke-linecap: square"/>
    </g>
    <g id="text_26">
     <!-- penalty -->
     <g transform="translate(518.615625 31.358438) scale(0.1 -0.1)">
      <defs>
       <path id="DejaVuSans-70" d="M 1159 525 
L 1159 -1331 
L 581 -1331 
L 581 3500 
L 1159 3500 
L 1159 2969 
Q 1341 3281 1617 3432 
Q 1894 3584 2278 3584 
Q 2916 3584 3314 3078 
Q 3713 2572 3713 1747 
Q 3713 922 3314 415 
Q 2916 -91 2278 -91 
Q 1894 -91 1617 61 
Q 1341 213 1159 525 
z
M 3116 1747 
Q 3116 2381 2855 2742 
Q 2594 3103 2138 3103 
Q 1681 3103 1420 2742 
Q 1159 2381 1159 1747 
Q 1159 1113 1420 752 
Q 1681 391 2138 391 
Q 2594 391 2855 752 
Q 3116 1113 3116 1747 
z
" transform="scale(0.015625)"/>
       <path id="DejaVuSans-65" d="M 3597 1894 
L 3597 1613 
L 953 1613 
Q 991 1019 1311 708 
Q 1631 397 2203 397 
Q 2534 397 2845 478 
Q 3156 559 3463 722 
L 3463 178 
Q 3153 47 2828 -22 
Q 2503 -91 2169 -91 
Q 1331 -91 842 396 
Q 353 884 353 1716 
Q 353 2575 817 3079 
Q 1281 3584 2069 3584 
Q 2775 3584 3186 3129 
Q 3597 2675 3597 1894 
z
M 3022 2063 
Q 3016 2534 2758 2815 
Q 2500 3097 2075 3097 
Q 1594 3097 1305 2825 
Q 1016 2553 972 2059 
L 3022 2063 
z
" transform="scale(0.015625)"/>
       <path id="DejaVuSans-6e" d="M 3513 2113 
L 3513 0 
L 2938 0 
L 2938 2094 
Q 2938 2591 2744 2837 
Q 2550 3084 2163 3084 
Q 1697 3084 1428 2787 
Q 1159 2491 1159 1978 
L 1159 0 
L 581 0 
L 581 3500 
L 1159 3500 
L 1159 2956 
Q 1366 3272 1645 3428 
Q 1925 3584 2291 3584 
Q 2894 3584 3203 3211 
Q 3513 2838 3513 2113 
z
" transform="scale(0.015625)"/>
       <path id="DejaVuSans-79" d="M 2059 -325 
Q 1816 -950 1584 -1140 
Q 1353 -1331 966 -1331 
L 506 -1331 
L 506 -850 
L 844 -850 
Q 1081 -850 1212 -737 
Q 1344 -625 1503 -206 
L 1606 56 
L 191 3500 
L 800 3500 
L 1894 763 
L 2988 3500 
L 3597 3500 
L 2059 -325 
z
" transform="scale(0.015625)"/>
      </defs>
      <use xlink:href="#DejaVuSans-70"/>
      <use xlink:href="#DejaVuSans-65" x="63.476562"/>
      <use xlink:href="#DejaVuSans-6e" x="125"/>
      <use xlink:href="#DejaVuSans-61" x="188.378906"/>
      <use xlink:href="#DejaVuSans-6c" x="249.658203"/>
      <use xlink:href="#DejaVuSans-74" x="277.441406"/>
      <use xlink:href="#DejaVuSans-79" x="316.650391"/>
     </g>
    </g>
   </g>
  </g>
 </g>
 <defs>
  <clipPath id="p7b0f8b63bd">
   <rect x="30.58" y="14.76" width="244.64" height="159.28"/>
  </clipPath>
  <clipPath id="pde0d36ca4a">
   <rect x="320.56" y="14.76" width="244.64" height="159.28"/>
  </clipPath>
 </defs>
</svg>
